<?xml version="1.0" standalone="no"?>
 <!DOCTYPE svg PUBLIC "-//W3C//DTD SVG 1.1//EN" 
 "http://www.w3.org/Graphics/SVG/1.1/DTD/svg11.dtd"> 
<svg
  xmlns:svg="http://www.w3.org/2000/svg"
  xmlns="http://www.w3.org/2000/svg"
  xmlns:xlink="http://www.w3.org/1999/xlink"
  xmlns:inkscape="http://www.inkscape.org/namespaces/inkscape"
  version="1.1"
  width="135.7884mm" height="84.1756mm" viewBox="0.0000 0.0000 135.7884 84.1756">
<title>SVG Image created as ign_human_top.svg date 2026-09-02T23:36:23 </title>
  <desc>Image generated by PCBNEW </desc>
<g style="fill:#000000; fill-opacity:1.0000;stroke:#000000; stroke-opacity:1.0000;
stroke-linecap:round; stroke-linejoin:round;"
 transform="translate(0 0) scale(1 1)">
<path style="fill:#b3261e; fill-opacity:1.0000; stroke:none;fill-rule:evenodd;"
d="M 94.6575,35.5400
94.6385,35.6357
94.5843,35.7168
94.5032,35.7710
94.4075,35.7900
93.8825,35.7900
93.7868,35.7710
93.7057,35.7168
93.6515,35.6357
93.6325,35.5400
93.6325,34.6400
93.6515,34.5443
93.7057,34.4632
93.7868,34.4090
93.8825,34.3900
94.4075,34.3900
94.5032,34.4090
94.5843,34.4632
94.6385,34.5443
94.6575,34.6400
Z" /> 
<path style="fill:#b3261e; fill-opacity:1.0000; stroke:none;fill-rule:evenodd;"
d="M 92.8325,35.5400
92.8135,35.6357
92.7593,35.7168
92.6782,35.7710
92.5825,35.7900
92.0575,35.7900
91.9618,35.7710
91.8807,35.7168
91.8265,35.6357
91.8075,35.5400
91.8075,34.6400
91.8265,34.5443
91.8807,34.4632
91.9618,34.4090
92.0575,34.3900
92.5825,34.3900
92.6782,34.4090
92.7593,34.4632
92.8135,34.5443
92.8325,34.6400
Z" /> 
<path style="fill:#b3261e; fill-opacity:1.0000; stroke:none;fill-rule:evenodd;"
d="M 22.2725,78.7400
22.2535,78.8357
22.1993,78.9168
22.1182,78.9710
22.0225,78.9900
20.0225,78.9900
19.9268,78.9710
19.8457,78.9168
19.7915,78.8357
19.7725,78.7400
19.7725,77.4400
19.7915,77.3443
19.8457,77.2632
19.9268,77.2090
20.0225,77.1900
22.0225,77.1900
22.1182,77.2090
22.1993,77.2632
22.2535,77.3443
22.2725,77.4400
Z" /> 
<path style="fill:#b3261e; fill-opacity:1.0000; stroke:none;fill-rule:evenodd;"
d="M 18.2725,78.7400
18.2535,78.8357
18.1993,78.9168
18.1182,78.9710
18.0225,78.9900
16.0225,78.9900
15.9268,78.9710
15.8457,78.9168
15.7915,78.8357
15.7725,78.7400
15.7725,77.4400
15.7915,77.3443
15.8457,77.2632
15.9268,77.2090
16.0225,77.1900
18.0225,77.1900
18.1182,77.2090
18.1993,77.2632
18.2535,77.3443
18.2725,77.4400
Z" /> 
</g>
<g style="fill:#b3261e; fill-opacity:1.0000; stroke:none;">
<circle cx="65.7075" cy="67.3912" r="0.7500" /> 
<path style="fill:#b3261e; fill-opacity:1.0000; stroke:none;fill-rule:evenodd;"
d="M 66.5575,73.0500
66.5765,72.9543
66.6307,72.8732
66.7118,72.8190
66.8075,72.8000
67.3325,72.8000
67.4282,72.8190
67.5093,72.8732
67.5635,72.9543
67.5825,73.0500
67.5825,73.9500
67.5635,74.0457
67.5093,74.1268
67.4282,74.1810
67.3325,74.2000
66.8075,74.2000
66.7118,74.1810
66.6307,74.1268
66.5765,74.0457
66.5575,73.9500
Z" /> 
<path style="fill:#b3261e; fill-opacity:1.0000; stroke:none;fill-rule:evenodd;"
d="M 68.3825,73.0500
68.4015,72.9543
68.4557,72.8732
68.5368,72.8190
68.6325,72.8000
69.1575,72.8000
69.2532,72.8190
69.3343,72.8732
69.3885,72.9543
69.4075,73.0500
69.4075,73.9500
69.3885,74.0457
69.3343,74.1268
69.2532,74.1810
69.1575,74.2000
68.6325,74.2000
68.5368,74.1810
68.4557,74.1268
68.4015,74.0457
68.3825,73.9500
Z" /> 
<path style="fill:#b3261e; fill-opacity:1.0000; stroke:none;fill-rule:evenodd;"
d="M 53.5450,51.4700
53.4493,51.4510
53.3682,51.3968
53.3140,51.3157
53.2950,51.2200
53.2950,48.5200
53.3140,48.4243
53.3682,48.3432
53.4493,48.2890
53.5450,48.2700
56.2450,48.2700
56.3407,48.2890
56.4218,48.3432
56.4760,48.4243
56.4950,48.5200
56.4950,51.2200
56.4760,51.3157
56.4218,51.3968
56.3407,51.4510
56.2450,51.4700
Z" /> 
<circle cx="54.8950" cy="34.6300" r="1.6000" /> 
<path style="fill:#b3261e; fill-opacity:1.0000; stroke:none;fill-rule:evenodd;"
d="M 91.1900,30.4550
91.0943,30.4360
91.0132,30.3818
90.9590,30.3007
90.9400,30.2050
90.9400,28.2050
90.9590,28.1093
91.0132,28.0282
91.0943,27.9740
91.1900,27.9550
92.4900,27.9550
92.5857,27.9740
92.6668,28.0282
92.7210,28.1093
92.7400,28.2050
92.7400,30.2050
92.7210,30.3007
92.6668,30.3818
92.5857,30.4360
92.4900,30.4550
Z" /> 
<path style="fill:#b3261e; fill-opacity:1.0000; stroke:none;fill-rule:evenodd;"
d="M 91.1900,26.4550
91.0943,26.4360
91.0132,26.3818
90.9590,26.3007
90.9400,26.2050
90.9400,24.2050
90.9590,24.1093
91.0132,24.0282
91.0943,23.9740
91.1900,23.9550
92.4900,23.9550
92.5857,23.9740
92.6668,24.0282
92.7210,24.1093
92.7400,24.2050
92.7400,26.2050
92.7210,26.3007
92.6668,26.3818
92.5857,26.4360
92.4900,26.4550
Z" /> 
<path style="fill:#b3261e; fill-opacity:1.0000; stroke:none;fill-rule:evenodd;"
d="M 8.4450,38.6550
8.5407,38.6740
8.6218,38.7282
8.6760,38.8093
8.6950,38.9050
8.6950,41.0050
8.6760,41.1007
8.6218,41.1818
8.5407,41.2360
8.4450,41.2550
6.3450,41.2550
6.2493,41.2360
6.1682,41.1818
6.1140,41.1007
6.0950,41.0050
6.0950,38.9050
6.1140,38.8093
6.1682,38.7282
6.2493,38.6740
6.3450,38.6550
Z" /> 
<circle cx="7.3950" cy="45.0350" r="1.3000" /> 
<path style="fill:#b3261e; fill-opacity:1.0000; stroke:none;fill-rule:evenodd;"
d="M 84.2200,42.5500
84.2390,42.4543
84.2932,42.3732
84.3743,42.3190
84.4700,42.3000
84.9950,42.3000
85.0907,42.3190
85.1718,42.3732
85.2260,42.4543
85.2450,42.5500
85.2450,43.4500
85.2260,43.5457
85.1718,43.6268
85.0907,43.6810
84.9950,43.7000
84.4700,43.7000
84.3743,43.6810
84.2932,43.6268
84.2390,43.5457
84.2200,43.4500
Z" /> 
<path style="fill:#b3261e; fill-opacity:1.0000; stroke:none;fill-rule:evenodd;"
d="M 86.0450,42.5500
86.0640,42.4543
86.1182,42.3732
86.1993,42.3190
86.2950,42.3000
86.8200,42.3000
86.9157,42.3190
86.9968,42.3732
87.0510,42.4543
87.0700,42.5500
87.0700,43.4500
87.0510,43.5457
86.9968,43.6268
86.9157,43.6810
86.8200,43.7000
86.2950,43.7000
86.1993,43.6810
86.1182,43.6268
86.0640,43.5457
86.0450,43.4500
Z" /> 
<circle cx="113.3950" cy="42.3400" r="0.7500" /> 
<path style="fill:#b3261e; fill-opacity:1.0000; stroke:none;fill-rule:evenodd;"
d="M 58.6200,58.9600
58.6390,58.8643
58.6932,58.7832
58.7743,58.7290
58.8700,58.7100
59.3950,58.7100
59.4907,58.7290
59.5718,58.7832
59.6260,58.8643
59.6450,58.9600
59.6450,59.8600
59.6260,59.9557
59.5718,60.0368
59.4907,60.0910
59.3950,60.1100
58.8700,60.1100
58.7743,60.0910
58.6932,60.0368
58.6390,59.9557
58.6200,59.8600
Z" /> 
<path style="fill:#b3261e; fill-opacity:1.0000; stroke:none;fill-rule:evenodd;"
d="M 60.4450,58.9600
60.4640,58.8643
60.5182,58.7832
60.5993,58.7290
60.6950,58.7100
61.2200,58.7100
61.3157,58.7290
61.3968,58.7832
61.4510,58.8643
61.4700,58.9600
61.4700,59.8600
61.4510,59.9557
61.3968,60.0368
61.3157,60.0910
61.2200,60.1100
60.6950,60.1100
60.5993,60.0910
60.5182,60.0368
60.4640,59.9557
60.4450,59.8600
Z" /> 
<path style="fill:#b3261e; fill-opacity:1.0000; stroke:none;fill-rule:evenodd;"
d="M 51.9075,30.7937
51.9261,30.7005
51.9789,30.6214
52.0580,30.5686
52.1512,30.5500
52.6387,30.5500
52.7320,30.5686
52.8111,30.6214
52.8639,30.7005
52.8825,30.7937
52.8825,31.7062
52.8639,31.7995
52.8111,31.8786
52.7320,31.9314
52.6387,31.9500
52.1512,31.9500
52.0580,31.9314
51.9789,31.8786
51.9261,31.7995
51.9075,31.7062
Z" /> 
<path style="fill:#b3261e; fill-opacity:1.0000; stroke:none;fill-rule:evenodd;"
d="M 53.7825,30.7937
53.8011,30.7005
53.8539,30.6214
53.9330,30.5686
54.0262,30.5500
54.5137,30.5500
54.6070,30.5686
54.6861,30.6214
54.7389,30.7005
54.7575,30.7937
54.7575,31.7062
54.7389,31.7995
54.6861,31.8786
54.6070,31.9314
54.5137,31.9500
54.0262,31.9500
53.9330,31.9314
53.8539,31.8786
53.8011,31.7995
53.7825,31.7062
Z" /> 
<circle cx="39.3950" cy="39.7500" r="0.7500" /> 
<path style="fill:#b3261e; fill-opacity:1.0000; stroke:none;fill-rule:evenodd;"
d="M 90.7950,42.5750
90.7950,40.8750
92.4950,40.8750
92.4950,42.5750
Z" /> 
<circle cx="91.6450" cy="44.2650" r="0.8500" /> 
<path style="fill:#b3261e; fill-opacity:1.0000; stroke:none;fill-rule:evenodd;"
d="M 92.2450,74.2100
90.6450,74.2100
90.6450,72.6100
92.2450,72.6100
Z" /> 
<circle cx="93.9850" cy="73.4100" r="0.8000" /> 
<circle cx="96.5250" cy="73.4100" r="0.8000" /> 
<circle cx="99.0650" cy="73.4100" r="0.8000" /> 
<circle cx="101.6050" cy="73.4100" r="0.8000" /> 
<circle cx="104.1450" cy="73.4100" r="0.8000" /> 
<circle cx="106.6850" cy="73.4100" r="0.8000" /> 
<circle cx="109.2250" cy="73.4100" r="0.8000" /> 
<circle cx="111.7650" cy="73.4100" r="0.8000" /> 
<circle cx="114.3050" cy="73.4100" r="0.8000" /> 
<circle cx="116.8450" cy="73.4100" r="0.8000" /> 
<circle cx="119.3850" cy="73.4100" r="0.8000" /> 
<circle cx="121.9250" cy="73.4100" r="0.8000" /> 
<circle cx="124.4650" cy="73.4100" r="0.8000" /> 
<circle cx="127.0050" cy="73.4100" r="0.8000" /> 
<circle cx="127.0050" cy="58.1700" r="0.8000" /> 
<circle cx="124.4650" cy="58.1700" r="0.8000" /> 
<circle cx="121.9250" cy="58.1700" r="0.8000" /> 
<circle cx="119.3850" cy="58.1700" r="0.8000" /> 
<circle cx="116.8450" cy="58.1700" r="0.8000" /> 
<circle cx="114.3050" cy="58.1700" r="0.8000" /> 
<circle cx="111.7650" cy="58.1700" r="0.8000" /> 
<circle cx="109.2250" cy="58.1700" r="0.8000" /> 
<circle cx="106.6850" cy="58.1700" r="0.8000" /> 
<circle cx="104.1450" cy="58.1700" r="0.8000" /> 
<circle cx="101.6050" cy="58.1700" r="0.8000" /> 
<circle cx="99.0650" cy="58.1700" r="0.8000" /> 
<circle cx="96.5250" cy="58.1700" r="0.8000" /> 
<circle cx="93.9850" cy="58.1700" r="0.8000" /> 
<circle cx="91.4450" cy="58.1700" r="0.8000" /> 
<circle cx="37.1450" cy="42.5000" r="0.7500" /> 
<circle cx="21.6450" cy="47.0000" r="0.7500" /> 
<path style="fill:#b3261e; fill-opacity:1.0000; stroke:none;fill-rule:evenodd;"
d="M 16.4500,34.8450
16.3543,34.8260
16.2732,34.7718
16.2190,34.6907
16.2000,34.5950
16.2000,32.4950
16.2190,32.3993
16.2732,32.3182
16.3543,32.2640
16.4500,32.2450
18.5500,32.2450
18.6457,32.2640
18.7268,32.3182
18.7810,32.3993
18.8000,32.4950
18.8000,34.5950
18.7810,34.6907
18.7268,34.7718
18.6457,34.8260
18.5500,34.8450
Z" /> 
<circle cx="17.5000" cy="28.4650" r="1.3000" /> 
<path style="fill:#b3261e; fill-opacity:1.0000; stroke:none;fill-rule:evenodd;"
d="M 8.4450,50.1550
8.5407,50.1740
8.6218,50.2282
8.6760,50.3093
8.6950,50.4050
8.6950,52.5050
8.6760,52.6007
8.6218,52.6818
8.5407,52.7360
8.4450,52.7550
6.3450,52.7550
6.2493,52.7360
6.1682,52.6818
6.1140,52.6007
6.0950,52.5050
6.0950,50.4050
6.1140,50.3093
6.1682,50.2282
6.2493,50.1740
6.3450,50.1550
Z" /> 
<circle cx="7.3950" cy="56.5350" r="1.3000" /> 
<path style="fill:#b3261e; fill-opacity:1.0000; stroke:none;fill-rule:evenodd;"
d="M 8.1950,72.7100
8.2907,72.7290
8.3718,72.7832
8.4260,72.8643
8.4450,72.9600
8.4450,75.0600
8.4260,75.1557
8.3718,75.2368
8.2907,75.2910
8.1950,75.3100
6.0950,75.3100
5.9993,75.2910
5.9182,75.2368
5.8640,75.1557
5.8450,75.0600
5.8450,72.9600
5.8640,72.8643
5.9182,72.7832
5.9993,72.7290
6.0950,72.7100
Z" /> 
<circle cx="7.1450" cy="79.0900" r="1.3000" /> 
<path style="fill:#b3261e; fill-opacity:1.0000; stroke:none;fill-rule:evenodd;"
d="M 51.6450,50.9000
51.6260,50.9957
51.5718,51.0768
51.4907,51.1310
51.3950,51.1500
49.3950,51.1500
49.2993,51.1310
49.2182,51.0768
49.1640,50.9957
49.1450,50.9000
49.1450,49.6000
49.1640,49.5043
49.2182,49.4232
49.2993,49.3690
49.3950,49.3500
51.3950,49.3500
51.4907,49.3690
51.5718,49.4232
51.6260,49.5043
51.6450,49.6000
Z" /> 
<path style="fill:#b3261e; fill-opacity:1.0000; stroke:none;fill-rule:evenodd;"
d="M 47.6450,50.9000
47.6260,50.9957
47.5718,51.0768
47.4907,51.1310
47.3950,51.1500
45.3950,51.1500
45.2993,51.1310
45.2182,51.0768
45.1640,50.9957
45.1450,50.9000
45.1450,49.6000
45.1640,49.5043
45.2182,49.4232
45.2993,49.3690
45.3950,49.3500
47.3950,49.3500
47.4907,49.3690
47.5718,49.4232
47.6260,49.5043
47.6450,49.6000
Z" /> 
<path style="fill:#b3261e; fill-opacity:1.0000; stroke:none;fill-rule:evenodd;"
d="M 94.3450,36.5775
94.4407,36.5965
94.5218,36.6507
94.5760,36.7318
94.5950,36.8275
94.5950,37.3525
94.5760,37.4482
94.5218,37.5293
94.4407,37.5835
94.3450,37.6025
93.4450,37.6025
93.3493,37.5835
93.2682,37.5293
93.2140,37.4482
93.1950,37.3525
93.1950,36.8275
93.2140,36.7318
93.2682,36.6507
93.3493,36.5965
93.4450,36.5775
Z" /> 
<path style="fill:#b3261e; fill-opacity:1.0000; stroke:none;fill-rule:evenodd;"
d="M 94.3450,38.4025
94.4407,38.4215
94.5218,38.4757
94.5760,38.5568
94.5950,38.6525
94.5950,39.1775
94.5760,39.2732
94.5218,39.3543
94.4407,39.4085
94.3450,39.4275
93.4450,39.4275
93.3493,39.4085
93.2682,39.3543
93.2140,39.2732
93.1950,39.1775
93.1950,38.6525
93.2140,38.5568
93.2682,38.4757
93.3493,38.4215
93.4450,38.4025
Z" /> 
<path style="fill:#b3261e; fill-opacity:1.0000; stroke:none;fill-rule:evenodd;"
d="M 71.8950,31.6800
71.9140,31.5843
71.9682,31.5032
72.0493,31.4490
72.1450,31.4300
72.6450,31.4300
72.7407,31.4490
72.8218,31.5032
72.8760,31.5843
72.8950,31.6800
72.8950,32.6300
72.8760,32.7257
72.8218,32.8068
72.7407,32.8610
72.6450,32.8800
72.1450,32.8800
72.0493,32.8610
71.9682,32.8068
71.9140,32.7257
71.8950,32.6300
Z" /> 
<path style="fill:#b3261e; fill-opacity:1.0000; stroke:none;fill-rule:evenodd;"
d="M 73.7950,31.6800
73.8140,31.5843
73.8682,31.5032
73.9493,31.4490
74.0450,31.4300
74.5450,31.4300
74.6407,31.4490
74.7218,31.5032
74.7760,31.5843
74.7950,31.6800
74.7950,32.6300
74.7760,32.7257
74.7218,32.8068
74.6407,32.8610
74.5450,32.8800
74.0450,32.8800
73.9493,32.8610
73.8682,32.8068
73.8140,32.7257
73.7950,32.6300
Z" /> 
<circle cx="50.6450" cy="47.0000" r="0.7500" /> 
<path style="fill:#b3261e; fill-opacity:1.0000; stroke:none;fill-rule:evenodd;"
d="M 79.1450,15.4750
79.1640,15.3793
79.2182,15.2982
79.2993,15.2440
79.3950,15.2250
82.3950,15.2250
82.4907,15.2440
82.5718,15.2982
82.6260,15.3793
82.6450,15.4750
82.6450,16.5750
82.6260,16.6707
82.5718,16.7518
82.4907,16.8060
82.3950,16.8250
79.3950,16.8250
79.2993,16.8060
79.2182,16.7518
79.1640,16.6707
79.1450,16.5750
Z" /> 
<path style="fill:#b3261e; fill-opacity:1.0000; stroke:none;fill-rule:evenodd;"
d="M 84.5450,15.4750
84.5640,15.3793
84.6182,15.2982
84.6993,15.2440
84.7950,15.2250
87.7950,15.2250
87.8907,15.2440
87.9718,15.2982
88.0260,15.3793
88.0450,15.4750
88.0450,16.5750
88.0260,16.6707
87.9718,16.7518
87.8907,16.8060
87.7950,16.8250
84.7950,16.8250
84.6993,16.8060
84.6182,16.7518
84.5640,16.6707
84.5450,16.5750
Z" /> 
<circle cx="74.8425" cy="34.6763" r="0.7500" /> 
<path style="fill:#b3261e; fill-opacity:1.0000; stroke:none;fill-rule:evenodd;"
d="M 62.4900,65.6725
62.3943,65.6535
62.3132,65.5993
62.2590,65.5182
62.2400,65.4225
62.2400,64.6975
62.2590,64.6018
62.3132,64.5207
62.3943,64.4665
62.4900,64.4475
65.3400,64.4475
65.4357,64.4665
65.5168,64.5207
65.5710,64.6018
65.5900,64.6975
65.5900,65.4225
65.5710,65.5182
65.5168,65.5993
65.4357,65.6535
65.3400,65.6725
Z" /> 
<path style="fill:#b3261e; fill-opacity:1.0000; stroke:none;fill-rule:evenodd;"
d="M 62.4900,59.7475
62.3943,59.7285
62.3132,59.6743
62.2590,59.5932
62.2400,59.4975
62.2400,58.7725
62.2590,58.6768
62.3132,58.5957
62.3943,58.5415
62.4900,58.5225
65.3400,58.5225
65.4357,58.5415
65.5168,58.5957
65.5710,58.6768
65.5900,58.7725
65.5900,59.4975
65.5710,59.5932
65.5168,59.6743
65.4357,59.7285
65.3400,59.7475
Z" /> 
<path style="fill:#b3261e; fill-opacity:1.0000; stroke:none;fill-rule:evenodd;"
d="M 39.0200,45.5250
38.9243,45.5060
38.8432,45.4518
38.7890,45.3707
38.7700,45.2750
38.7700,44.6500
38.7890,44.5543
38.8432,44.4732
38.9243,44.4190
39.0200,44.4000
40.2700,44.4000
40.3657,44.4190
40.4468,44.4732
40.5010,44.5543
40.5200,44.6500
40.5200,45.2750
40.5010,45.3707
40.4468,45.4518
40.3657,45.5060
40.2700,45.5250
Z" /> 
<path style="fill:#b3261e; fill-opacity:1.0000; stroke:none;fill-rule:evenodd;"
d="M 39.0200,42.6000
38.9243,42.5810
38.8432,42.5268
38.7890,42.4457
38.7700,42.3500
38.7700,41.7250
38.7890,41.6293
38.8432,41.5482
38.9243,41.4940
39.0200,41.4750
40.2700,41.4750
40.3657,41.4940
40.4468,41.5482
40.5010,41.6293
40.5200,41.7250
40.5200,42.3500
40.5010,42.4457
40.4468,42.5268
40.3657,42.5810
40.2700,42.6000
Z" /> 
<path style="fill:#b3261e; fill-opacity:1.0000; stroke:none;fill-rule:evenodd;"
d="M 61.6450,62.7850
61.6336,62.8424
61.6011,62.8911
61.5524,62.9236
61.4950,62.9350
60.1700,62.9350
60.1126,62.9236
60.0639,62.8911
60.0314,62.8424
60.0200,62.7850
60.0200,62.4850
60.0314,62.4276
60.0639,62.3789
60.1126,62.3464
60.1700,62.3350
61.4950,62.3350
61.5524,62.3464
61.6011,62.3789
61.6336,62.4276
61.6450,62.4850
Z" /> 
<path style="fill:#b3261e; fill-opacity:1.0000; stroke:none;fill-rule:evenodd;"
d="M 61.6450,61.5150
61.6336,61.5724
61.6011,61.6211
61.5524,61.6536
61.4950,61.6650
60.1700,61.6650
60.1126,61.6536
60.0639,61.6211
60.0314,61.5724
60.0200,61.5150
60.0200,61.2150
60.0314,61.1576
60.0639,61.1089
60.1126,61.0764
60.1700,61.0650
61.4950,61.0650
61.5524,61.0764
61.6011,61.1089
61.6336,61.1576
61.6450,61.2150
Z" /> 
<path style="fill:#b3261e; fill-opacity:1.0000; stroke:none;fill-rule:evenodd;"
d="M 55.2700,61.5150
55.2586,61.5724
55.2261,61.6211
55.1774,61.6536
55.1200,61.6650
53.7950,61.6650
53.7376,61.6536
53.6889,61.6211
53.6564,61.5724
53.6450,61.5150
53.6450,61.2150
53.6564,61.1576
53.6889,61.1089
53.7376,61.0764
53.7950,61.0650
55.1200,61.0650
55.1774,61.0764
55.2261,61.1089
55.2586,61.1576
55.2700,61.2150
Z" /> 
<path style="fill:#b3261e; fill-opacity:1.0000; stroke:none;fill-rule:evenodd;"
d="M 55.2700,62.7850
55.2586,62.8424
55.2261,62.8911
55.1774,62.9236
55.1200,62.9350
53.7950,62.9350
53.7376,62.9236
53.6889,62.8911
53.6564,62.8424
53.6450,62.7850
53.6450,62.4850
53.6564,62.4276
53.6889,62.3789
53.7376,62.3464
53.7950,62.3350
55.1200,62.3350
55.1774,62.3464
55.2261,62.3789
55.2586,62.4276
55.2700,62.4850
Z" /> 
<path style="fill:#b3261e; fill-opacity:1.0000; stroke:none;fill-rule:evenodd;"
d="M 97.0750,77.2800
97.1707,77.2990
97.2518,77.3532
97.3060,77.4343
97.3250,77.5300
97.3250,79.6300
97.3060,79.7257
97.2518,79.8068
97.1707,79.8610
97.0750,79.8800
95.9750,79.8800
95.8793,79.8610
95.7982,79.8068
95.7440,79.7257
95.7250,79.6300
95.7250,77.5300
95.7440,77.4343
95.7982,77.3532
95.8793,77.2990
95.9750,77.2800
Z" /> 
<path style="fill:#b3261e; fill-opacity:1.0000; stroke:none;fill-rule:evenodd;"
d="M 97.0750,80.8800
97.1707,80.8990
97.2518,80.9532
97.3060,81.0343
97.3250,81.1300
97.3250,83.2300
97.3060,83.3257
97.2518,83.4068
97.1707,83.4610
97.0750,83.4800
95.9750,83.4800
95.8793,83.4610
95.7982,83.4068
95.7440,83.3257
95.7250,83.2300
95.7250,81.1300
95.7440,81.0343
95.7982,80.9532
95.8793,80.8990
95.9750,80.8800
Z" /> 
<path style="fill:#b3261e; fill-opacity:1.0000; stroke:none;fill-rule:evenodd;"
d="M 85.0900,21.6550
85.1857,21.6740
85.2668,21.7282
85.3210,21.8093
85.3400,21.9050
85.3400,24.0050
85.3210,24.1007
85.2668,24.1818
85.1857,24.2360
85.0900,24.2550
82.9900,24.2550
82.8943,24.2360
82.8132,24.1818
82.7590,24.1007
82.7400,24.0050
82.7400,21.9050
82.7590,21.8093
82.8132,21.7282
82.8943,21.6740
82.9900,21.6550
Z" /> 
<circle cx="84.0400" cy="28.0350" r="1.3000" /> 
<path style="fill:#b3261e; fill-opacity:1.0000; stroke:none;fill-rule:evenodd;"
d="M 66.4700,75.0438
66.4886,74.9505
66.5414,74.8714
66.6205,74.8186
66.7137,74.8000
67.2013,74.8000
67.2945,74.8186
67.3736,74.8714
67.4264,74.9505
67.4450,75.0438
67.4450,75.9562
67.4264,76.0495
67.3736,76.1286
67.2945,76.1814
67.2013,76.2000
66.7137,76.2000
66.6205,76.1814
66.5414,76.1286
66.4886,76.0495
66.4700,75.9562
Z" /> 
<path style="fill:#b3261e; fill-opacity:1.0000; stroke:none;fill-rule:evenodd;"
d="M 68.3450,75.0438
68.3636,74.9505
68.4164,74.8714
68.4955,74.8186
68.5887,74.8000
69.0763,74.8000
69.1695,74.8186
69.2486,74.8714
69.3014,74.9505
69.3200,75.0438
69.3200,75.9562
69.3014,76.0495
69.2486,76.1286
69.1695,76.1814
69.0763,76.2000
68.5887,76.2000
68.4955,76.1814
68.4164,76.1286
68.3636,76.0495
68.3450,75.9562
Z" /> 
<path style="fill:#b3261e; fill-opacity:1.0000; stroke:none;fill-rule:evenodd;"
d="M 39.1950,36.7625
39.0993,36.7435
39.0182,36.6893
38.9640,36.6082
38.9450,36.5125
38.9450,35.9875
38.9640,35.8918
39.0182,35.8107
39.0993,35.7565
39.1950,35.7375
40.0950,35.7375
40.1907,35.7565
40.2718,35.8107
40.3260,35.8918
40.3450,35.9875
40.3450,36.5125
40.3260,36.6082
40.2718,36.6893
40.1907,36.7435
40.0950,36.7625
Z" /> 
<path style="fill:#b3261e; fill-opacity:1.0000; stroke:none;fill-rule:evenodd;"
d="M 39.1950,34.9375
39.0993,34.9185
39.0182,34.8643
38.9640,34.7832
38.9450,34.6875
38.9450,34.1625
38.9640,34.0668
39.0182,33.9857
39.0993,33.9315
39.1950,33.9125
40.0950,33.9125
40.1907,33.9315
40.2718,33.9857
40.3260,34.0668
40.3450,34.1625
40.3450,34.6875
40.3260,34.7832
40.2718,34.8643
40.1907,34.9185
40.0950,34.9375
Z" /> 
<path style="fill:#b3261e; fill-opacity:1.0000; stroke:none;fill-rule:evenodd;"
d="M 68.5913,65.4825
68.6845,65.5011
68.7636,65.5539
68.8164,65.6330
68.8350,65.7262
68.8350,66.2137
68.8164,66.3070
68.7636,66.3861
68.6845,66.4389
68.5913,66.4575
67.6787,66.4575
67.5855,66.4389
67.5064,66.3861
67.4536,66.3070
67.4350,66.2137
67.4350,65.7262
67.4536,65.6330
67.5064,65.5539
67.5855,65.5011
67.6787,65.4825
Z" /> 
<path style="fill:#b3261e; fill-opacity:1.0000; stroke:none;fill-rule:evenodd;"
d="M 68.5913,67.3575
68.6845,67.3761
68.7636,67.4289
68.8164,67.5080
68.8350,67.6012
68.8350,68.0887
68.8164,68.1820
68.7636,68.2611
68.6845,68.3139
68.5913,68.3325
67.6787,68.3325
67.5855,68.3139
67.5064,68.2611
67.4536,68.1820
67.4350,68.0887
67.4350,67.6012
67.4536,67.5080
67.5064,67.4289
67.5855,67.3761
67.6787,67.3575
Z" /> 
<circle cx="84.1450" cy="35.5900" r="0.7500" /> 
<circle cx="31.4350" cy="47.8000" r="1.3900" /> 
<circle cx="31.4350" cy="51.2000" r="1.3900" /> 
<circle cx="41.3550" cy="47.8000" r="1.3900" /> 
<circle cx="41.3550" cy="51.2000" r="1.3900" /> 
<path style="fill:#b3261e; fill-opacity:1.0000; stroke:none;fill-rule:evenodd;"
d="M 127.5950,48.5500
127.4993,48.5310
127.4182,48.4768
127.3640,48.3957
127.3450,48.3000
127.3450,46.2000
127.3640,46.1043
127.4182,46.0232
127.4993,45.9690
127.5950,45.9500
129.6950,45.9500
129.7907,45.9690
129.8718,46.0232
129.9260,46.1043
129.9450,46.2000
129.9450,48.3000
129.9260,48.3957
129.8718,48.4768
129.7907,48.5310
129.6950,48.5500
Z" /> 
<circle cx="128.6450" cy="42.1700" r="1.3000" /> 
<circle cx="128.6450" cy="37.0900" r="1.3000" /> 
<path style="fill:#b3261e; fill-opacity:1.0000; stroke:none;fill-rule:evenodd;"
d="M 113.6200,44.0900
113.7157,44.1090
113.7968,44.1632
113.8510,44.2443
113.8700,44.3400
113.8700,44.8400
113.8510,44.9357
113.7968,45.0168
113.7157,45.0710
113.6200,45.0900
112.6700,45.0900
112.5743,45.0710
112.4932,45.0168
112.4390,44.9357
112.4200,44.8400
112.4200,44.3400
112.4390,44.2443
112.4932,44.1632
112.5743,44.1090
112.6700,44.0900
Z" /> 
<path style="fill:#b3261e; fill-opacity:1.0000; stroke:none;fill-rule:evenodd;"
d="M 113.6200,45.9900
113.7157,46.0090
113.7968,46.0632
113.8510,46.1443
113.8700,46.2400
113.8700,46.7400
113.8510,46.8357
113.7968,46.9168
113.7157,46.9710
113.6200,46.9900
112.6700,46.9900
112.5743,46.9710
112.4932,46.9168
112.4390,46.8357
112.4200,46.7400
112.4200,46.2400
112.4390,46.1443
112.4932,46.0632
112.5743,46.0090
112.6700,45.9900
Z" /> 
<path style="fill:#b3261e; fill-opacity:1.0000; stroke:none;fill-rule:evenodd;"
d="M 19.4700,54.5500
19.4890,54.4543
19.5432,54.3732
19.6243,54.3190
19.7200,54.3000
20.2450,54.3000
20.3407,54.3190
20.4218,54.3732
20.4760,54.4543
20.4950,54.5500
20.4950,55.4500
20.4760,55.5457
20.4218,55.6268
20.3407,55.6810
20.2450,55.7000
19.7200,55.7000
19.6243,55.6810
19.5432,55.6268
19.4890,55.5457
19.4700,55.4500
Z" /> 
<path style="fill:#b3261e; fill-opacity:1.0000; stroke:none;fill-rule:evenodd;"
d="M 21.2950,54.5500
21.3140,54.4543
21.3682,54.3732
21.4493,54.3190
21.5450,54.3000
22.0700,54.3000
22.1657,54.3190
22.2468,54.3732
22.3010,54.4543
22.3200,54.5500
22.3200,55.4500
22.3010,55.5457
22.2468,55.6268
22.1657,55.6810
22.0700,55.7000
21.5450,55.7000
21.4493,55.6810
21.3682,55.6268
21.3140,55.5457
21.2950,55.4500
Z" /> 
<path style="fill:#b3261e; fill-opacity:1.0000; stroke:none;fill-rule:evenodd;"
d="M 8.1950,61.4500
8.2907,61.4690
8.3718,61.5232
8.4260,61.6043
8.4450,61.7000
8.4450,63.8000
8.4260,63.8957
8.3718,63.9768
8.2907,64.0310
8.1950,64.0500
6.0950,64.0500
5.9993,64.0310
5.9182,63.9768
5.8640,63.8957
5.8450,63.8000
5.8450,61.7000
5.8640,61.6043
5.9182,61.5232
5.9993,61.4690
6.0950,61.4500
Z" /> 
<circle cx="7.1450" cy="67.8300" r="1.3000" /> 
<path style="fill:#b3261e; fill-opacity:1.0000; stroke:none;fill-rule:evenodd;"
d="M 104.7200,37.5900
104.7314,37.5326
104.7639,37.4839
104.8126,37.4514
104.8700,37.4400
106.5200,37.4400
106.5774,37.4514
106.6261,37.4839
106.6586,37.5326
106.6700,37.5900
106.6700,37.8900
106.6586,37.9474
106.6261,37.9961
106.5774,38.0286
106.5200,38.0400
104.8700,38.0400
104.8126,38.0286
104.7639,37.9961
104.7314,37.9474
104.7200,37.8900
Z" /> 
<path style="fill:#b3261e; fill-opacity:1.0000; stroke:none;fill-rule:evenodd;"
d="M 104.7200,38.8600
104.7314,38.8026
104.7639,38.7539
104.8126,38.7214
104.8700,38.7100
106.5200,38.7100
106.5774,38.7214
106.6261,38.7539
106.6586,38.8026
106.6700,38.8600
106.6700,39.1600
106.6586,39.2174
106.6261,39.2661
106.5774,39.2986
106.5200,39.3100
104.8700,39.3100
104.8126,39.2986
104.7639,39.2661
104.7314,39.2174
104.7200,39.1600
Z" /> 
<path style="fill:#b3261e; fill-opacity:1.0000; stroke:none;fill-rule:evenodd;"
d="M 104.7200,40.1300
104.7314,40.0726
104.7639,40.0239
104.8126,39.9914
104.8700,39.9800
106.5200,39.9800
106.5774,39.9914
106.6261,40.0239
106.6586,40.0726
106.6700,40.1300
106.6700,40.4300
106.6586,40.4874
106.6261,40.5361
106.5774,40.5686
106.5200,40.5800
104.8700,40.5800
104.8126,40.5686
104.7639,40.5361
104.7314,40.4874
104.7200,40.4300
Z" /> 
<path style="fill:#b3261e; fill-opacity:1.0000; stroke:none;fill-rule:evenodd;"
d="M 104.7200,41.4000
104.7314,41.3426
104.7639,41.2939
104.8126,41.2614
104.8700,41.2500
106.5200,41.2500
106.5774,41.2614
106.6261,41.2939
106.6586,41.3426
106.6700,41.4000
106.6700,41.7000
106.6586,41.7574
106.6261,41.8061
106.5774,41.8386
106.5200,41.8500
104.8700,41.8500
104.8126,41.8386
104.7639,41.8061
104.7314,41.7574
104.7200,41.7000
Z" /> 
<path style="fill:#b3261e; fill-opacity:1.0000; stroke:none;fill-rule:evenodd;"
d="M 104.7200,42.6700
104.7314,42.6126
104.7639,42.5639
104.8126,42.5314
104.8700,42.5200
106.5200,42.5200
106.5774,42.5314
106.6261,42.5639
106.6586,42.6126
106.6700,42.6700
106.6700,42.9700
106.6586,43.0274
106.6261,43.0761
106.5774,43.1086
106.5200,43.1200
104.8700,43.1200
104.8126,43.1086
104.7639,43.0761
104.7314,43.0274
104.7200,42.9700
Z" /> 
<path style="fill:#b3261e; fill-opacity:1.0000; stroke:none;fill-rule:evenodd;"
d="M 104.7200,43.9400
104.7314,43.8826
104.7639,43.8339
104.8126,43.8014
104.8700,43.7900
106.5200,43.7900
106.5774,43.8014
106.6261,43.8339
106.6586,43.8826
106.6700,43.9400
106.6700,44.2400
106.6586,44.2974
106.6261,44.3461
106.5774,44.3786
106.5200,44.3900
104.8700,44.3900
104.8126,44.3786
104.7639,44.3461
104.7314,44.2974
104.7200,44.2400
Z" /> 
<path style="fill:#b3261e; fill-opacity:1.0000; stroke:none;fill-rule:evenodd;"
d="M 104.7200,45.2100
104.7314,45.1526
104.7639,45.1039
104.8126,45.0714
104.8700,45.0600
106.5200,45.0600
106.5774,45.0714
106.6261,45.1039
106.6586,45.1526
106.6700,45.2100
106.6700,45.5100
106.6586,45.5674
106.6261,45.6161
106.5774,45.6486
106.5200,45.6600
104.8700,45.6600
104.8126,45.6486
104.7639,45.6161
104.7314,45.5674
104.7200,45.5100
Z" /> 
<path style="fill:#b3261e; fill-opacity:1.0000; stroke:none;fill-rule:evenodd;"
d="M 104.7200,46.4800
104.7314,46.4226
104.7639,46.3739
104.8126,46.3414
104.8700,46.3300
106.5200,46.3300
106.5774,46.3414
106.6261,46.3739
106.6586,46.4226
106.6700,46.4800
106.6700,46.7800
106.6586,46.8374
106.6261,46.8861
106.5774,46.9186
106.5200,46.9300
104.8700,46.9300
104.8126,46.9186
104.7639,46.8861
104.7314,46.8374
104.7200,46.7800
Z" /> 
<path style="fill:#b3261e; fill-opacity:1.0000; stroke:none;fill-rule:evenodd;"
d="M 109.6700,46.4800
109.6814,46.4226
109.7139,46.3739
109.7626,46.3414
109.8200,46.3300
111.4700,46.3300
111.5274,46.3414
111.5761,46.3739
111.6086,46.4226
111.6200,46.4800
111.6200,46.7800
111.6086,46.8374
111.5761,46.8861
111.5274,46.9186
111.4700,46.9300
109.8200,46.9300
109.7626,46.9186
109.7139,46.8861
109.6814,46.8374
109.6700,46.7800
Z" /> 
<path style="fill:#b3261e; fill-opacity:1.0000; stroke:none;fill-rule:evenodd;"
d="M 109.6700,45.2100
109.6814,45.1526
109.7139,45.1039
109.7626,45.0714
109.8200,45.0600
111.4700,45.0600
111.5274,45.0714
111.5761,45.1039
111.6086,45.1526
111.6200,45.2100
111.6200,45.5100
111.6086,45.5674
111.5761,45.6161
111.5274,45.6486
111.4700,45.6600
109.8200,45.6600
109.7626,45.6486
109.7139,45.6161
109.6814,45.5674
109.6700,45.5100
Z" /> 
<path style="fill:#b3261e; fill-opacity:1.0000; stroke:none;fill-rule:evenodd;"
d="M 109.6700,43.9400
109.6814,43.8826
109.7139,43.8339
109.7626,43.8014
109.8200,43.7900
111.4700,43.7900
111.5274,43.8014
111.5761,43.8339
111.6086,43.8826
111.6200,43.9400
111.6200,44.2400
111.6086,44.2974
111.5761,44.3461
111.5274,44.3786
111.4700,44.3900
109.8200,44.3900
109.7626,44.3786
109.7139,44.3461
109.6814,44.2974
109.6700,44.2400
Z" /> 
<path style="fill:#b3261e; fill-opacity:1.0000; stroke:none;fill-rule:evenodd;"
d="M 109.6700,42.6700
109.6814,42.6126
109.7139,42.5639
109.7626,42.5314
109.8200,42.5200
111.4700,42.5200
111.5274,42.5314
111.5761,42.5639
111.6086,42.6126
111.6200,42.6700
111.6200,42.9700
111.6086,43.0274
111.5761,43.0761
111.5274,43.1086
111.4700,43.1200
109.8200,43.1200
109.7626,43.1086
109.7139,43.0761
109.6814,43.0274
109.6700,42.9700
Z" /> 
<path style="fill:#b3261e; fill-opacity:1.0000; stroke:none;fill-rule:evenodd;"
d="M 109.6700,41.4000
109.6814,41.3426
109.7139,41.2939
109.7626,41.2614
109.8200,41.2500
111.4700,41.2500
111.5274,41.2614
111.5761,41.2939
111.6086,41.3426
111.6200,41.4000
111.6200,41.7000
111.6086,41.7574
111.5761,41.8061
111.5274,41.8386
111.4700,41.8500
109.8200,41.8500
109.7626,41.8386
109.7139,41.8061
109.6814,41.7574
109.6700,41.7000
Z" /> 
<path style="fill:#b3261e; fill-opacity:1.0000; stroke:none;fill-rule:evenodd;"
d="M 109.6700,40.1300
109.6814,40.0726
109.7139,40.0239
109.7626,39.9914
109.8200,39.9800
111.4700,39.9800
111.5274,39.9914
111.5761,40.0239
111.6086,40.0726
111.6200,40.1300
111.6200,40.4300
111.6086,40.4874
111.5761,40.5361
111.5274,40.5686
111.4700,40.5800
109.8200,40.5800
109.7626,40.5686
109.7139,40.5361
109.6814,40.4874
109.6700,40.4300
Z" /> 
<path style="fill:#b3261e; fill-opacity:1.0000; stroke:none;fill-rule:evenodd;"
d="M 109.6700,38.8600
109.6814,38.8026
109.7139,38.7539
109.7626,38.7214
109.8200,38.7100
111.4700,38.7100
111.5274,38.7214
111.5761,38.7539
111.6086,38.8026
111.6200,38.8600
111.6200,39.1600
111.6086,39.2174
111.5761,39.2661
111.5274,39.2986
111.4700,39.3100
109.8200,39.3100
109.7626,39.2986
109.7139,39.2661
109.6814,39.2174
109.6700,39.1600
Z" /> 
<path style="fill:#b3261e; fill-opacity:1.0000; stroke:none;fill-rule:evenodd;"
d="M 109.6700,37.5900
109.6814,37.5326
109.7139,37.4839
109.7626,37.4514
109.8200,37.4400
111.4700,37.4400
111.5274,37.4514
111.5761,37.4839
111.6086,37.5326
111.6200,37.5900
111.6200,37.8900
111.6086,37.9474
111.5761,37.9961
111.5274,38.0286
111.4700,38.0400
109.8200,38.0400
109.7626,38.0286
109.7139,37.9961
109.6814,37.9474
109.6700,37.8900
Z" /> 
<path style="fill:#b3261e; fill-opacity:1.0000; stroke:none;fill-rule:evenodd;"
d="M 45.3950,45.4000
45.2993,45.3810
45.2182,45.3268
45.1640,45.2457
45.1450,45.1500
45.1450,41.2500
45.1640,41.1543
45.2182,41.0732
45.2993,41.0190
45.3950,41.0000
47.3950,41.0000
47.4907,41.0190
47.5718,41.0732
47.6260,41.1543
47.6450,41.2500
47.6450,45.1500
47.6260,45.2457
47.5718,45.3268
47.4907,45.3810
47.3950,45.4000
Z" /> 
<path style="fill:#b3261e; fill-opacity:1.0000; stroke:none;fill-rule:evenodd;"
d="M 45.3950,37.0000
45.2993,36.9810
45.2182,36.9268
45.1640,36.8457
45.1450,36.7500
45.1450,32.8500
45.1640,32.7543
45.2182,32.6732
45.2993,32.6190
45.3950,32.6000
47.3950,32.6000
47.4907,32.6190
47.5718,32.6732
47.6260,32.7543
47.6450,32.8500
47.6450,36.7500
47.6260,36.8457
47.5718,36.9268
47.4907,36.9810
47.3950,37.0000
Z" /> 
<path style="fill:#b3261e; fill-opacity:1.0000; stroke:none;fill-rule:evenodd;"
d="M 98.5900,54.3200
98.4943,54.3010
98.4132,54.2468
98.3590,54.1657
98.3400,54.0700
98.3400,53.5700
98.3590,53.4743
98.4132,53.3932
98.4943,53.3390
98.5900,53.3200
99.5400,53.3200
99.6357,53.3390
99.7168,53.3932
99.7710,53.4743
99.7900,53.5700
99.7900,54.0700
99.7710,54.1657
99.7168,54.2468
99.6357,54.3010
99.5400,54.3200
Z" /> 
<path style="fill:#b3261e; fill-opacity:1.0000; stroke:none;fill-rule:evenodd;"
d="M 98.5900,52.4200
98.4943,52.4010
98.4132,52.3468
98.3590,52.2657
98.3400,52.1700
98.3400,51.6700
98.3590,51.5743
98.4132,51.4932
98.4943,51.4390
98.5900,51.4200
99.5400,51.4200
99.6357,51.4390
99.7168,51.4932
99.7710,51.5743
99.7900,51.6700
99.7900,52.1700
99.7710,52.2657
99.7168,52.3468
99.6357,52.4010
99.5400,52.4200
Z" /> 
<circle cx="84.8950" cy="38.3400" r="0.7500" /> 
<path style="fill:#b3261e; fill-opacity:1.0000; stroke:none;fill-rule:evenodd;"
d="M 68.5850,69.1700
68.6807,69.1890
68.7618,69.2432
68.8160,69.3243
68.8350,69.4200
68.8350,69.9450
68.8160,70.0407
68.7618,70.1218
68.6807,70.1760
68.5850,70.1950
67.6850,70.1950
67.5893,70.1760
67.5082,70.1218
67.4540,70.0407
67.4350,69.9450
67.4350,69.4200
67.4540,69.3243
67.5082,69.2432
67.5893,69.1890
67.6850,69.1700
Z" /> 
<path style="fill:#b3261e; fill-opacity:1.0000; stroke:none;fill-rule:evenodd;"
d="M 68.5850,70.9950
68.6807,71.0140
68.7618,71.0682
68.8160,71.1493
68.8350,71.2450
68.8350,71.7700
68.8160,71.8657
68.7618,71.9468
68.6807,72.0010
68.5850,72.0200
67.6850,72.0200
67.5893,72.0010
67.5082,71.9468
67.4540,71.8657
67.4350,71.7700
67.4350,71.2450
67.4540,71.1493
67.5082,71.0682
67.5893,71.0140
67.6850,70.9950
Z" /> 
<path style="fill:#b3261e; fill-opacity:1.0000; stroke:none;fill-rule:evenodd;"
d="M 115.2375,38.1325
115.2375,36.1325
117.2375,36.1325
117.2375,38.1325
Z" /> 
<circle cx="116.2375" cy="39.6725" r="1.0000" /> 
<circle cx="116.2375" cy="47.2925" r="1.0000" /> 
<circle cx="121.3175" cy="47.2925" r="1.0000" /> 
<circle cx="121.3175" cy="39.6725" r="1.0000" /> 
<circle cx="121.3175" cy="37.1325" r="1.0000" /> 
<circle cx="107.0781" cy="37.1671" r="0.4000" /> 
<circle cx="85.9823" cy="40.9273" r="0.4000" /> 
<circle cx="94.7241" cy="42.8650" r="0.4000" /> 
<circle cx="95.7896" cy="36.0000" r="0.4000" /> 
<circle cx="93.6241" cy="44.2650" r="0.4000" /> 
<circle cx="35.1000" cy="63.0000" r="0.4000" /> 
<circle cx="91.3200" cy="35.0900" r="0.4000" /> 
<circle cx="91.8400" cy="24.2050" r="0.4000" /> 
<circle cx="22.6450" cy="47.0000" r="0.4000" /> 
<circle cx="93.8950" cy="39.9150" r="0.4000" /> 
<circle cx="75.2950" cy="32.1550" r="0.4000" /> 
<circle cx="87.2950" cy="16.0250" r="0.4000" /> 
<circle cx="61.8325" cy="61.3650" r="0.4000" /> 
<circle cx="53.4575" cy="61.3650" r="0.4000" /> 
<circle cx="96.5250" cy="83.1800" r="0.4000" /> 
<circle cx="68.1350" cy="64.9700" r="0.4000" /> 
<circle cx="113.1450" cy="47.4900" r="0.4000" /> 
<circle cx="22.8075" cy="55.0000" r="0.4000" /> 
<circle cx="104.9879" cy="47.3371" r="0.4000" /> 
<circle cx="46.3950" cy="33.8000" r="0.4000" /> 
<circle cx="99.0650" cy="50.9200" r="0.4000" /> 
<circle cx="111.6000" cy="34.5000" r="0.4000" /> 
<circle cx="49.2207" cy="29.9371" r="0.4000" /> 
<circle cx="65.6358" cy="31.4220" r="0.4000" /> 
<circle cx="95.7241" cy="44.2650" r="0.4000" /> 
<circle cx="88.0823" cy="40.9273" r="0.4000" /> 
<circle cx="97.8896" cy="35.0900" r="0.4000" /> 
<circle cx="108.5631" cy="38.6520" r="0.4000" /> 
<circle cx="50.5913" cy="52.0463" r="0.4000" /> 
<circle cx="54.8057" cy="47.0000" r="0.4000" /> 
<circle cx="71.4755" cy="68.7855" r="0.4000" /> 
<circle cx="71.1857" cy="70.8568" r="0.4000" /> 
<circle cx="106.0672" cy="76.0322" r="0.4000" /> 
<circle cx="117.2257" cy="44.5900" r="0.4000" /> 
<circle cx="26.3950" cy="80.7578" r="0.4000" /> 
<circle cx="12.0835" cy="74.0100" r="0.4000" /> 
<circle cx="43.7852" cy="42.0375" r="0.4000" /> 
<circle cx="92.1450" cy="49.0000" r="0.4000" /> 
<circle cx="64.3343" cy="75.9357" r="0.4000" /> 
<circle cx="65.6993" cy="71.8182" r="0.4000" /> 
<circle cx="96.2573" cy="29.2050" r="0.4000" /> 
<circle cx="87.8404" cy="24.4399" r="0.4000" /> 
<circle cx="57.6832" cy="58.4593" r="0.4000" /> 
<circle cx="64.6692" cy="70.2167" r="0.4000" /> 
<circle cx="72.0950" cy="35.6127" r="0.4000" /> 
<circle cx="84.1622" cy="26.0772" r="0.4000" /> 
<circle cx="113.5421" cy="38.3100" r="0.4000" /> 
<circle cx="125.1648" cy="42.9488" r="0.4000" /> 
<circle cx="130.7134" cy="75.4100" r="0.4000" /> 
<circle cx="69.3829" cy="81.9254" r="0.4000" /> 
<circle cx="58.0000" cy="31.2500" r="0.4000" /> 
<circle cx="43.0896" cy="33.7250" r="0.4000" /> 
<circle cx="13.4849" cy="62.9849" r="0.4000" /> 
<circle cx="10.6169" cy="62.2479" r="0.4000" /> 
<circle cx="68.1000" cy="61.5000" r="0.4000" /> 
<circle cx="63.4974" cy="56.2508" r="0.4000" /> 
<circle cx="31.5151" cy="54.0151" r="0.4000" /> 
<circle cx="45.6000" cy="66.0000" r="0.4000" /> 
<circle cx="133.3605" cy="37.0900" r="0.4000" /> 
<circle cx="119.4697" cy="36.3937" r="0.4000" /> 
<circle cx="103.1921" cy="39.8400" r="0.4000" /> 
<circle cx="10.2335" cy="42.0550" r="0.4000" /> 
<circle cx="21.3453" cy="40.6289" r="0.4000" /> 
<circle cx="46.4849" cy="53.9849" r="0.4000" /> 
<circle cx="52.7450" cy="44.9393" r="0.4000" /> 
<circle cx="59.4950" cy="49.8700" r="0.4000" /> 
<circle cx="43.5557" cy="39.7500" r="0.4000" /> 
<circle cx="20.3385" cy="35.6450" r="0.4000" /> 
<circle cx="123.4175" cy="44.5637" r="0.4000" /> 
<circle cx="72.2625" cy="75.5000" r="0.4000" /> 
<circle cx="5.0450" cy="60.7500" r="0.4000" /> 
<circle cx="30.0151" cy="59.9849" r="0.4000" /> 
<circle cx="11.9849" cy="80.9849" r="0.4000" /> 
<circle cx="54.4950" cy="32.8530" r="0.4000" /> 
<circle cx="124.4849" cy="40.4849" r="0.4000" /> 
<circle cx="35.6321" cy="45.7029" r="0.4000" /> 
<circle cx="9.2450" cy="64.7500" r="0.4000" /> 
<circle cx="130.7450" cy="39.6700" r="0.4000" /> 
<circle cx="44.1000" cy="69.0000" r="0.4000" /> 
<circle cx="86.6282" cy="45.8991" r="0.4000" /> 
<circle cx="87.6299" cy="37.0749" r="0.4000" /> 
<circle cx="20.1269" cy="81.1944" r="0.4000" /> 
<circle cx="61.4849" cy="73.4849" r="0.4000" /> 
<circle cx="72.7425" cy="37.1763" r="0.4000" /> 
<circle cx="102.0000" cy="48.0000" r="0.4000" /> 
<circle cx="23.8628" cy="78.0900" r="0.4000" /> 
<circle cx="115.1257" cy="44.5900" r="0.4000" /> 
<circle cx="110.6450" cy="47.4501" r="0.4000" /> 
<circle cx="9.9835" cy="74.0100" r="0.4000" /> 
<circle cx="41.6852" cy="42.0375" r="0.4000" /> 
<circle cx="93.0000" cy="48.0000" r="0.4000" /> 
<circle cx="113.6950" cy="42.3400" r="0.4000" /> 
<circle cx="109.9450" cy="37.7400" r="0.4000" /> 
<circle cx="43.5000" cy="66.0000" r="0.4000" /> 
<circle cx="48.8950" cy="34.8000" r="0.4000" /> 
<circle cx="66.7075" cy="67.3912" r="0.4000" /> 
<circle cx="128.6134" cy="75.4100" r="0.4000" /> 
<circle cx="61.5590" cy="59.0520" r="0.4000" /> 
<circle cx="67.8980" cy="80.4405" r="0.4000" /> 
<circle cx="84.2832" cy="42.5507" r="0.4000" /> 
<circle cx="60.0832" cy="57.4593" r="0.4000" /> 
<circle cx="76.3802" cy="34.6763" r="0.4000" /> 
<circle cx="100.0250" cy="54.7800" r="0.4000" /> 
<circle cx="59.7832" cy="58.4593" r="0.4000" /> 
<circle cx="82.3555" cy="22.9550" r="0.4000" /> 
<circle cx="63.1843" cy="68.7318" r="0.4000" /> 
<circle cx="72.6950" cy="33.5127" r="0.4000" /> 
<circle cx="65.8193" cy="74.4507" r="0.4000" /> 
<circle cx="67.1843" cy="70.3332" r="0.4000" /> 
<circle cx="85.3832" cy="43.9507" r="0.4000" /> 
<circle cx="10.2335" cy="39.9550" r="0.4000" /> 
<circle cx="19.5000" cy="39.0000" r="0.4000" /> 
<circle cx="55.9000" cy="31.2500" r="0.4000" /> 
<circle cx="40.8872" cy="32.9105" r="0.4000" /> 
<circle cx="106.4921" cy="39.0100" r="0.4000" /> 
<circle cx="104.5823" cy="74.5473" r="0.4000" /> 
<circle cx="50.6450" cy="44.9393" r="0.4000" /> 
<circle cx="45.0000" cy="52.5000" r="0.4000" /> 
<circle cx="48.1913" cy="52.0463" r="0.4000" /> 
<circle cx="47.1913" cy="52.0463" r="0.4000" /> 
<circle cx="19.9825" cy="55.0000" r="0.4000" /> 
<circle cx="19.9825" cy="56.3446" r="0.4000" /> 
<circle cx="31.5000" cy="58.5000" r="0.4000" /> 
<circle cx="62.1472" cy="57.3672" r="0.4000" /> 
<circle cx="66.2892" cy="62.0125" r="0.4000" /> 
<circle cx="7.1450" cy="60.7500" r="0.4000" /> 
<circle cx="64.1755" cy="62.8850" r="0.4000" /> 
<circle cx="62.1756" cy="62.6350" r="0.4000" /> 
<circle cx="69.0857" cy="70.8568" r="0.4000" /> 
<circle cx="69.3755" cy="68.7855" r="0.4000" /> 
<circle cx="131.2605" cy="37.0900" r="0.4000" /> 
<circle cx="117.9848" cy="34.9088" r="0.4000" /> 
<circle cx="122.6548" cy="43.0098" r="0.4000" /> 
<circle cx="113.5421" cy="40.4100" r="0.4000" /> 
</g>
<g style="fill:none; 
stroke:#b3261e; stroke-width:0.2540; stroke-opacity:1; 
stroke-linecap:round; stroke-linejoin:round;">
<path d="M106.6450 71.5000
L106.6450 73.3700
" />
<path d="M94.0879 45.0288
L94.0879 49.1823
" />
<path d="M91.1450 71.2500
L106.3950 71.2500
" />
<path d="M90.0000 53.2703
L90.0000 70.1050
" />
<path d="M94.1450 35.0900
L94.8796 35.0900
" />
<path d="M90.0000 70.1050
L91.1450 71.2500
" />
<path d="M106.3950 71.2500
L106.6450 71.5000
" />
<path d="M94.7241 42.8650
L93.3241 44.2650
" />
<path d="M93.3241 44.2650
L94.0879 45.0288
" />
<path d="M85.9823 39.4273
L84.8950 38.3400
" />
<path d="M85.9823 40.9273
L85.9823 39.4273
" />
<path d="M106.5052 37.7400
L105.6950 37.7400
" />
<path d="M91.6450 44.2650
L93.6241 44.2650
" />
<path d="M107.0781 37.1671
L106.5052 37.7400
" />
<path d="M94.0879 49.1823
L90.0000 53.2703
" />
<path d="M94.8796 35.0900
L95.7896 36.0000
" />
<path d="M106.6450 73.3700
L106.6850 73.4100
" />
</g>
<g style="fill:none; 
stroke:#b3261e; stroke-width:1.0000; stroke-opacity:1; 
stroke-linecap:round; stroke-linejoin:round;">
<path d="M92.3200 35.0900
L91.3200 35.0900
" />
<path d="M91.8400 25.2050
L91.8400 24.2050
" />
<path d="M21.6450 47.0000
L22.6450 47.0000
" />
<path d="M93.8950 38.9150
L93.8950 39.9150
" />
<path d="M74.2950 32.1550
L75.2950 32.1550
" />
<path d="M86.2950 16.0250
L87.2950 16.0250
" />
<path d="M60.8325 61.3650
L61.8325 61.3650
" />
<path d="M54.4575 61.3650
L53.4575 61.3650
" />
<path d="M96.5250 82.1800
L96.5250 83.1800
" />
<path d="M68.1350 65.9700
L68.1350 64.9700
" />
<path d="M113.1450 46.4900
L113.1450 47.4900
" />
<path d="M21.8075 55.0000
L22.8075 55.0000
" />
<path d="M105.6950 46.6300
L104.9879 47.3371
" />
<path d="M46.3950 34.8000
L46.3950 33.8000
" />
<path d="M99.0650 51.9200
L99.0650 50.9200
" />
</g>
<g style="fill:none; 
stroke:#b3261e; stroke-width:0.6000; stroke-opacity:1; 
stroke-linecap:round; stroke-linejoin:round;">
<path d="M86.9041 48.0000
L93.0000 48.0000
" />
</g>
<g style="fill:none; 
stroke:#b3261e; stroke-width:1.0000; stroke-opacity:1; 
stroke-linecap:round; stroke-linejoin:round;">
<path d="M31.4400 33.5450
L34.1450 36.2500
" />
</g>
<g style="fill:none; 
stroke:#b3261e; stroke-width:0.6000; stroke-opacity:1; 
stroke-linecap:round; stroke-linejoin:round;">
<path d="M39.6450 42.0375
L39.6450 40.0000
" />
</g>
<g style="fill:none; 
stroke:#b3261e; stroke-width:1.0000; stroke-opacity:1; 
stroke-linecap:round; stroke-linejoin:round;">
<path d="M39.3950 36.2500
L39.6450 36.2500
" />
<path d="M39.3950 39.7500
L39.3950 36.2500
" />
</g>
<g style="fill:none; 
stroke:#b3261e; stroke-width:0.6000; stroke-opacity:1; 
stroke-linecap:round; stroke-linejoin:round;">
<path d="M77.2550 38.3600
L80.3509 41.4559
" />
<path d="M80.3509 41.4559
L80.3600 41.4559
" />
</g>
<g style="fill:none; 
stroke:#b3261e; stroke-width:1.0000; stroke-opacity:1; 
stroke-linecap:round; stroke-linejoin:round;">
<path d="M34.1450 36.2500
L39.6450 36.2500
" />
</g>
<g style="fill:none; 
stroke:#b3261e; stroke-width:0.6000; stroke-opacity:1; 
stroke-linecap:round; stroke-linejoin:round;">
<path d="M39.6450 40.0000
L41.2850 38.3600
" />
<path d="M102.0000 48.0000
L103.1823 49.1823
" />
<path d="M103.1823 49.1823
L106.9181 49.1823
" />
<path d="M110.6450 47.4501
L110.6450 46.6300
" />
<path d="M106.9181 49.1823
L108.8249 47.2755
" />
<path d="M108.8249 47.2755
L108.8249 46.6300
" />
<path d="M108.8249 46.6300
L110.6450 46.6300
" />
<path d="M113.1450 44.5900
L115.1257 44.5900
" />
</g>
<g style="fill:none; 
stroke:#b3261e; stroke-width:1.0000; stroke-opacity:1; 
stroke-linecap:round; stroke-linejoin:round;">
<path d="M9.9835 74.0100
L7.1450 74.0100
" />
<path d="M41.6852 42.0375
L39.6450 42.0375
" />
<path d="M21.0225 78.0900
L23.8628 78.0900
" />
<path d="M39.6450 39.9795
L39.6450 42.0375
" />
<path d="M17.5000 33.5450
L31.4400 33.5450
" />
</g>
<g style="fill:none; 
stroke:#b3261e; stroke-width:0.6000; stroke-opacity:1; 
stroke-linecap:round; stroke-linejoin:round;">
<path d="M41.2850 38.3600
L77.2550 38.3600
" />
<path d="M80.3600 41.4559
L86.9041 48.0000
" />
<path d="M110.6450 36.2500
L110.6450 37.7400
" />
<path d="M17.0225 78.0900
L18.7903 79.8578
" />
<path d="M18.7903 79.8578
L26.5372 79.8578
" />
<path d="M48.8950 34.8000
L51.3450 34.8000
" />
<path d="M107.6450 33.2500
L110.6450 36.2500
" />
<path d="M89.8950 32.0000
L90.8950 33.0000
" />
<path d="M52.3950 33.7500
L52.3950 31.0000
" />
<path d="M26.5372 79.8578
L40.3950 66.0000
" />
<path d="M107.3950 33.0000
L109.5000 35.1050
" />
<path d="M16.0225 79.0900
L7.1450 79.0900
" />
<path d="M17.0225 78.0900
L16.0225 79.0900
" />
<path d="M40.3950 66.0000
L43.5000 66.0000
" />
<path d="M109.5301 35.1351
L107.6450 33.2500
" />
<path d="M83.0000 32.0000
L89.8950 32.0000
" />
<path d="M53.6450 29.7500
L80.7500 29.7500
" />
<path d="M90.8950 33.0000
L107.3950 33.0000
" />
<path d="M109.9450 37.7400
L110.6450 37.7400
" />
<path d="M80.7500 29.7500
L83.0000 32.0000
" />
<path d="M51.3450 34.8000
L52.3950 33.7500
" />
<path d="M52.3950 31.0000
L53.6450 29.7500
" />
</g>
<g style="fill:none; 
stroke:#b3261e; stroke-width:0.2540; stroke-opacity:1; 
stroke-linecap:round; stroke-linejoin:round;">
<path d="M63.0000 60.3610
L63.0000 63.0000
" />
<path d="M60.9575 60.1818
L62.8208 60.1818
" />
<path d="M64.5000 75.0000
L66.9575 75.5000
" />
<path d="M61.5590 59.0520
L61.2010 59.4100
" />
<path d="M61.2010 59.4100
L60.9575 59.4100
" />
<path d="M63.0488 67.3912
L66.7075 67.3912
" />
<path d="M127.0050 73.4100
L128.6134 73.4100
" />
<path d="M128.6134 73.4100
L128.6134 75.4100
" />
<path d="M67.8980 80.4405
L67.8980 76.4405
" />
<path d="M67.8980 76.4405
L66.9575 75.5000
" />
<path d="M62.0125 72.5125
L64.5000 75.0000
" />
<path d="M62.0125 68.4276
L62.0125 72.5125
" />
<path d="M63.0488 67.3912
L62.0125 68.4276
" />
<path d="M55.9734 64.1509
L54.4575 62.6350
" />
<path d="M61.8491 64.1509
L55.9734 64.1509
" />
<path d="M62.8208 60.1818
L63.0000 60.3610
" />
<path d="M63.0000 63.0000
L61.8491 64.1509
" />
<path d="M60.9575 59.4100
L60.9575 60.1818
" />
<path d="M87.2050 27.2050
L84.0400 24.0400
" />
<path d="M83.8950 22.8100
L84.0400 22.9550
" />
<path d="M115.2300 45.6770
L118.3127 45.6770
" />
<path d="M91.3500 27.2050
L87.2050 27.2050
" />
<path d="M99.8250 53.8200
L103.4757 50.1693
" />
<path d="M118.3127 41.7477
L116.2375 39.6725
" />
<path d="M83.8950 16.5000
L83.8950 22.8100
" />
<path d="M112.6397 50.1693
L114.6570 48.1520
" />
<path d="M114.6570 48.1520
L114.6570 46.2500
" />
<path d="M103.4757 50.1693
L112.6397 50.1693
" />
<path d="M84.0400 24.0400
L84.0400 22.9550
" />
<path d="M114.6570 46.2500
L115.2300 45.6770
" />
<path d="M91.8400 29.2050
L91.8400 27.6950
" />
<path d="M84.2832 42.5507
L84.2832 40.8882
" />
<path d="M99.0650 53.8200
L99.8250 53.8200
" />
<path d="M80.8950 16.0250
L83.4200 16.0250
" />
<path d="M76.3802 34.6763
L74.8425 34.6763
" />
<path d="M72.3950 32.1550
L72.3950 33.5127
" />
<path d="M72.3950 33.5127
L72.9701 34.0878
" />
<path d="M72.9701 34.0878
L75.0862 34.0878
" />
<path d="M75.0862 34.0878
L75.0862 34.4325
" />
<path d="M75.0862 34.4325
L74.8425 34.6763
" />
<path d="M67.0700 73.5000
L66.1193 74.4507
" />
<path d="M67.4843 70.3332
L68.1350 69.6825
" />
<path d="M99.0650 58.1700
L99.0650 53.8200
" />
<path d="M84.7325 43.0000
L84.7325 43.3000
" />
<path d="M84.7325 43.3000
L85.3832 43.9507
" />
<path d="M59.1325 59.4100
L59.1325 59.1100
" />
<path d="M59.1325 59.1100
L59.7832 58.4593
" />
<path d="M63.1843 68.7318
L67.1843 68.7318
" />
<path d="M67.1843 68.7318
L68.1350 69.6825
" />
<path d="M60.0832 58.4593
L60.0832 57.4593
" />
<path d="M82.3555 22.9550
L84.0400 22.9550
" />
<path d="M84.7325 43.0000
L84.2832 42.5507
" />
<path d="M83.4200 16.0250
L83.8950 16.5000
" />
<path d="M118.3127 45.6770
L118.3127 41.7477
" />
<path d="M100.0250 54.7800
L99.0650 53.8200
" />
<path d="M78.0713 34.6763
L76.3802 34.6763
" />
<path d="M91.8400 27.6950
L91.3500 27.2050
" />
<path d="M84.2832 40.8882
L78.0713 34.6763
" />
<path d="M68.8950 73.5000
L69.8050 73.5000
" />
<path d="M69.8050 73.5000
L70.2950 73.9900
" />
<path d="M70.2950 73.9900
L70.2950 75.3675
" />
<path d="M70.2950 75.3675
L70.1625 75.5000
" />
<path d="M70.1625 75.5000
L68.8325 75.5000
" />
</g>
<g style="fill:none; 
stroke:#b3261e; stroke-width:1.0000; stroke-opacity:1; 
stroke-linecap:round; stroke-linejoin:round;">
<path d="M39.6450 44.9625
L43.3575 44.9625
" />
<path d="M52.9353 50.2500
L50.3950 50.2500
" />
<path d="M50.3950 50.0000
L50.3950 50.2500
" />
<path d="M45.1723 46.7773
L45.2193 46.7303
" />
<path d="M53.3153 49.8700
L52.9353 50.2500
" />
<path d="M45.2193 46.7303
L47.1253 46.7303
" />
<path d="M47.1253 46.7303
L50.3950 50.0000
" />
<path d="M54.8950 49.8700
L53.3153 49.8700
" />
<path d="M43.3575 44.9625
L45.1723 46.7773
" />
<path d="M37.1450 42.5000
L39.6075 44.9625
" />
<path d="M46.3950 46.7303
L46.3950 43.2000
" />
<path d="M28.5000 39.0000
L31.3950 41.8950
" />
<path d="M31.3950 41.8950
L31.3950 44.7500
" />
<path d="M31.3950 44.7500
L31.4350 44.7900
" />
<path d="M19.5000 39.0000
L28.5000 39.0000
" />
<path d="M31.4350 44.7900
L31.4350 47.8000
" />
<path d="M31.4350 47.8000
L31.4350 51.2000
" />
<path d="M7.3950 39.9550
L10.2335 39.9550
" />
</g>
<g style="fill:none; 
stroke:#b3261e; stroke-width:0.2540; stroke-opacity:1; 
stroke-linecap:round; stroke-linejoin:round;">
<path d="M90.3700 43.0000
L91.6450 41.7250
" />
<path d="M86.5575 43.0000
L90.3700 43.0000
" />
<path d="M54.2700 31.2500
L55.9000 31.2500
" />
<path d="M40.8872 32.9105
L40.8872 33.9105
" />
<path d="M40.8872 33.9105
L40.3727 34.4250
" />
<path d="M40.3727 34.4250
L39.6450 34.4250
" />
<path d="M96.5250 73.4100
L96.5250 78.5800
" />
<path d="M95.2396 37.0900
L97.1496 39.0000
" />
<path d="M97.1496 39.0000
L106.6016 39.0000
" />
<path d="M93.8950 37.0900
L95.2396 37.0900
" />
<path d="M104.1450 74.1100
L104.5823 74.5473
" />
<path d="M94.4225 37.0900
L94.4225 36.5307
" />
<path d="M94.4225 36.5307
L94.2440 36.3522
" />
<path d="M94.2440 36.3522
L89.8112 36.3522
" />
<path d="M89.8112 36.3522
L89.0490 35.5900
" />
<path d="M89.0490 35.5900
L84.1450 35.5900
" />
<path d="M104.1450 73.4100
L104.1450 74.1100
" />
<path d="M106.2667 39.2355
L105.6950 39.0100
" />
<path d="M106.6016 39.0000
L106.6748 38.9269
" />
</g>
<g style="fill:none; 
stroke:#b3261e; stroke-width:1.0000; stroke-opacity:1; 
stroke-linecap:round; stroke-linejoin:round;">
<path d="M41.3550 47.8000
L41.3550 51.2000
" />
<path d="M42.6550 52.5000
L41.3550 51.2000
" />
<path d="M46.3950 50.2500
L48.1913 52.0463
" />
<path d="M46.3950 50.2500
L46.3950 51.2500
" />
<path d="M46.3950 51.2500
L47.1913 52.0463
" />
<path d="M45.0000 52.5000
L42.6550 52.5000
" />
<path d="M50.6450 44.9393
L50.6450 47.0000
" />
</g>
<g style="fill:none; 
stroke:#b3261e; stroke-width:0.2540; stroke-opacity:1; 
stroke-linecap:round; stroke-linejoin:round;">
<path d="M62.1472 57.3672
L60.7800 56.0000
" />
<path d="M35.3950 56.0000
L32.8950 58.5000
" />
<path d="M60.7800 56.0000
L35.3950 56.0000
" />
<path d="M32.8950 58.5000
L31.5000 58.5000
" />
<path d="M7.1450 60.7500
L7.1450 62.7500
" />
<path d="M63.9150 65.0600
L66.1755 65.0600
" />
<path d="M66.1755 65.0600
L66.2892 64.9462
" />
<path d="M66.2892 64.9462
L66.2892 62.0125
" />
<path d="M19.9825 56.3446
L19.9825 55.0000
" />
<path d="M63.9150 59.1350
L63.4230 59.6270
" />
<path d="M63.4230 59.6270
L63.4230 59.7744
" />
<path d="M63.4230 59.7744
L64.1755 60.5269
" />
<path d="M64.1755 60.5269
L64.1755 62.8850
" />
<path d="M62.1756 62.6350
L60.8325 62.6350
" />
<path d="M68.1350 67.8450
L69.0755 68.7855
" />
<path d="M68.7857 70.8568
L68.1350 71.5075
" />
<path d="M121.3600 47.2500
L121.3175 47.2925
" />
<path d="M128.6450 47.2500
L121.3600 47.2500
" />
<path d="M116.2375 47.2925
L121.3175 47.2925
" />
<path d="M125.9230 38.5280
L124.5275 37.1325
" />
<path d="M125.9230 41.3700
L125.9230 38.5280
" />
<path d="M124.5275 37.1325
L121.3175 37.1325
" />
<path d="M126.7230 42.1700
L128.6450 42.1700
" />
<path d="M126.7230 42.1700
L125.9230 41.3700
" />
<path d="M117.2610 37.1325
L116.2375 37.1325
" />
<path d="M117.9848 36.4088
L117.2610 37.1325
" />
<path d="M117.9848 34.9088
L117.9848 36.4088
" />
<path d="M128.6450 37.0900
L131.2605 37.0900
" />
<path d="M122.6548 41.0098
L121.3175 39.6725
" />
<path d="M122.6548 43.0098
L122.6548 41.0098
" />
<path d="M112.1421 39.0100
L113.5421 40.4100
" />
<path d="M110.6450 39.0100
L112.1421 39.0100
" />
</g>
<g style="fill:none; 
stroke:#555555; stroke-width:0.1000; stroke-opacity:1; 
stroke-linecap:round; stroke-linejoin:round;">
<path d="M0.0000 0.0000
L135.7900 0.0000
" />
<path d="M0.0000 84.1850
L0.0000 0.0000
" />
<path d="M135.7900 0.0000
L135.7900 84.1850
" />
<path d="M135.7900 84.1850
L0.0000 84.1850
" />
</g>
<g style="fill:#e8e8e0; fill-opacity:1.0000; stroke:none;">
<circle cx="107.0781" cy="37.1671" r="0.1750" /> 
<circle cx="85.9823" cy="40.9273" r="0.1750" /> 
<circle cx="94.7241" cy="42.8650" r="0.1750" /> 
<circle cx="95.7896" cy="36.0000" r="0.1750" /> 
<circle cx="93.6241" cy="44.2650" r="0.1750" /> 
<circle cx="35.1000" cy="63.0000" r="0.1750" /> 
<circle cx="91.3200" cy="35.0900" r="0.1750" /> 
<circle cx="91.8400" cy="24.2050" r="0.1750" /> 
<circle cx="22.6450" cy="47.0000" r="0.1750" /> 
<circle cx="93.8950" cy="39.9150" r="0.1750" /> 
<circle cx="75.2950" cy="32.1550" r="0.1750" /> 
<circle cx="87.2950" cy="16.0250" r="0.1750" /> 
<circle cx="61.8325" cy="61.3650" r="0.1750" /> 
<circle cx="53.4575" cy="61.3650" r="0.1750" /> 
<circle cx="96.5250" cy="83.1800" r="0.1750" /> 
<circle cx="68.1350" cy="64.9700" r="0.1750" /> 
<circle cx="113.1450" cy="47.4900" r="0.1750" /> 
<circle cx="22.8075" cy="55.0000" r="0.1750" /> 
<circle cx="104.9879" cy="47.3371" r="0.1750" /> 
<circle cx="46.3950" cy="33.8000" r="0.1750" /> 
<circle cx="99.0650" cy="50.9200" r="0.1750" /> 
<circle cx="111.6000" cy="34.5000" r="0.1750" /> 
<circle cx="49.2207" cy="29.9371" r="0.1750" /> 
<circle cx="65.6358" cy="31.4220" r="0.1750" /> 
<circle cx="95.7241" cy="44.2650" r="0.1750" /> 
<circle cx="88.0823" cy="40.9273" r="0.1750" /> 
<circle cx="97.8896" cy="35.0900" r="0.1750" /> 
<circle cx="108.5631" cy="38.6520" r="0.1750" /> 
<circle cx="50.5913" cy="52.0463" r="0.1750" /> 
<circle cx="54.8057" cy="47.0000" r="0.1750" /> 
<circle cx="71.4755" cy="68.7855" r="0.1750" /> 
<circle cx="71.1857" cy="70.8568" r="0.1750" /> 
<circle cx="106.0672" cy="76.0322" r="0.1750" /> 
<circle cx="117.2257" cy="44.5900" r="0.1750" /> 
<circle cx="26.3950" cy="80.7578" r="0.1750" /> 
<circle cx="12.0835" cy="74.0100" r="0.1750" /> 
<circle cx="43.7852" cy="42.0375" r="0.1750" /> 
<circle cx="92.1450" cy="49.0000" r="0.1750" /> 
<circle cx="64.3343" cy="75.9357" r="0.1750" /> 
<circle cx="65.6993" cy="71.8182" r="0.1750" /> 
<circle cx="96.2573" cy="29.2050" r="0.1750" /> 
<circle cx="87.8404" cy="24.4399" r="0.1750" /> 
<circle cx="57.6832" cy="58.4593" r="0.1750" /> 
<circle cx="64.6692" cy="70.2167" r="0.1750" /> 
<circle cx="72.0950" cy="35.6127" r="0.1750" /> 
<circle cx="84.1622" cy="26.0772" r="0.1750" /> 
<circle cx="113.5421" cy="38.3100" r="0.1750" /> 
<circle cx="125.1648" cy="42.9488" r="0.1750" /> 
<circle cx="130.7134" cy="75.4100" r="0.1750" /> 
<circle cx="69.3829" cy="81.9254" r="0.1750" /> 
<circle cx="58.0000" cy="31.2500" r="0.1750" /> 
<circle cx="43.0896" cy="33.7250" r="0.1750" /> 
<circle cx="13.4849" cy="62.9849" r="0.1750" /> 
<circle cx="10.6169" cy="62.2479" r="0.1750" /> 
<circle cx="68.1000" cy="61.5000" r="0.1750" /> 
<circle cx="63.4974" cy="56.2508" r="0.1750" /> 
<circle cx="31.5151" cy="54.0151" r="0.1750" /> 
<circle cx="45.6000" cy="66.0000" r="0.1750" /> 
<circle cx="133.3605" cy="37.0900" r="0.1750" /> 
<circle cx="119.4697" cy="36.3937" r="0.1750" /> 
<circle cx="103.1921" cy="39.8400" r="0.1750" /> 
<circle cx="10.2335" cy="42.0550" r="0.1750" /> 
<circle cx="21.3453" cy="40.6289" r="0.1750" /> 
<circle cx="46.4849" cy="53.9849" r="0.1750" /> 
<circle cx="52.7450" cy="44.9393" r="0.1750" /> 
<circle cx="59.4950" cy="49.8700" r="0.1750" /> 
<circle cx="43.5557" cy="39.7500" r="0.1750" /> 
<circle cx="20.3385" cy="35.6450" r="0.1750" /> 
<circle cx="123.4175" cy="44.5637" r="0.1750" /> 
<circle cx="72.2625" cy="75.5000" r="0.1750" /> 
<circle cx="5.0450" cy="60.7500" r="0.1750" /> 
<circle cx="30.0151" cy="59.9849" r="0.1750" /> 
<circle cx="11.9849" cy="80.9849" r="0.1750" /> 
<circle cx="54.4950" cy="32.8530" r="0.1750" /> 
<circle cx="124.4849" cy="40.4849" r="0.1750" /> 
<circle cx="35.6321" cy="45.7029" r="0.1750" /> 
<circle cx="9.2450" cy="64.7500" r="0.1750" /> 
<circle cx="130.7450" cy="39.6700" r="0.1750" /> 
<circle cx="44.1000" cy="69.0000" r="0.1750" /> 
<circle cx="86.6282" cy="45.8991" r="0.1750" /> 
<circle cx="87.6299" cy="37.0749" r="0.1750" /> 
<circle cx="20.1269" cy="81.1944" r="0.1750" /> 
<circle cx="61.4849" cy="73.4849" r="0.1750" /> 
<circle cx="72.7425" cy="37.1763" r="0.1750" /> 
<circle cx="102.0000" cy="48.0000" r="0.1750" /> 
<circle cx="23.8628" cy="78.0900" r="0.1750" /> 
<circle cx="115.1257" cy="44.5900" r="0.1750" /> 
<circle cx="110.6450" cy="47.4501" r="0.1750" /> 
<circle cx="9.9835" cy="74.0100" r="0.1750" /> 
<circle cx="41.6852" cy="42.0375" r="0.1750" /> 
<circle cx="93.0000" cy="48.0000" r="0.1750" /> 
<circle cx="113.6950" cy="42.3400" r="0.1750" /> 
<circle cx="109.9450" cy="37.7400" r="0.1750" /> 
<circle cx="43.5000" cy="66.0000" r="0.1750" /> 
<circle cx="48.8950" cy="34.8000" r="0.1750" /> 
<circle cx="66.7075" cy="67.3912" r="0.1750" /> 
<circle cx="128.6134" cy="75.4100" r="0.1750" /> 
<circle cx="61.5590" cy="59.0520" r="0.1750" /> 
<circle cx="67.8980" cy="80.4405" r="0.1750" /> 
<circle cx="84.2832" cy="42.5507" r="0.1750" /> 
<circle cx="60.0832" cy="57.4593" r="0.1750" /> 
<circle cx="76.3802" cy="34.6763" r="0.1750" /> 
<circle cx="100.0250" cy="54.7800" r="0.1750" /> 
<circle cx="59.7832" cy="58.4593" r="0.1750" /> 
<circle cx="82.3555" cy="22.9550" r="0.1750" /> 
<circle cx="63.1843" cy="68.7318" r="0.1750" /> 
<circle cx="72.6950" cy="33.5127" r="0.1750" /> 
<circle cx="65.8193" cy="74.4507" r="0.1750" /> 
<circle cx="67.1843" cy="70.3332" r="0.1750" /> 
<circle cx="85.3832" cy="43.9507" r="0.1750" /> 
<circle cx="10.2335" cy="39.9550" r="0.1750" /> 
<circle cx="19.5000" cy="39.0000" r="0.1750" /> 
<circle cx="55.9000" cy="31.2500" r="0.1750" /> 
<circle cx="40.8872" cy="32.9105" r="0.1750" /> 
<circle cx="106.4921" cy="39.0100" r="0.1750" /> 
<circle cx="104.5823" cy="74.5473" r="0.1750" /> 
<circle cx="50.6450" cy="44.9393" r="0.1750" /> 
<circle cx="45.0000" cy="52.5000" r="0.1750" /> 
<circle cx="48.1913" cy="52.0463" r="0.1750" /> 
<circle cx="47.1913" cy="52.0463" r="0.1750" /> 
<circle cx="19.9825" cy="55.0000" r="0.1750" /> 
<circle cx="19.9825" cy="56.3446" r="0.1750" /> 
<circle cx="31.5000" cy="58.5000" r="0.1750" /> 
<circle cx="62.1472" cy="57.3672" r="0.1750" /> 
<circle cx="66.2892" cy="62.0125" r="0.1750" /> 
<circle cx="7.1450" cy="60.7500" r="0.1750" /> 
<circle cx="64.1755" cy="62.8850" r="0.1750" /> 
<circle cx="62.1756" cy="62.6350" r="0.1750" /> 
<circle cx="69.0857" cy="70.8568" r="0.1750" /> 
<circle cx="69.3755" cy="68.7855" r="0.1750" /> 
<circle cx="131.2605" cy="37.0900" r="0.1750" /> 
<circle cx="117.9848" cy="34.9088" r="0.1750" /> 
<circle cx="122.6548" cy="43.0098" r="0.1750" /> 
<circle cx="113.5421" cy="40.4100" r="0.1750" /> 
</g>
<g style="fill:#000000; fill-opacity:1.0000; stroke:none;">
<circle cx="4.5000" cy="4.5000" r="0.1750" /> 
</g>
<g style="fill:#e8e8e0; fill-opacity:1.0000; stroke:none;">
<circle cx="54.8950" cy="49.8700" r="0.1750" /> 
</g>
<g style="fill:#e8e8e0; fill-opacity:1.0000; stroke:none;">
<circle cx="54.8950" cy="34.6300" r="0.1750" /> 
</g>
<g style="fill:#e8e8e0; fill-opacity:1.0000; stroke:none;">
<circle cx="7.3950" cy="39.9550" r="0.1750" /> 
</g>
<g style="fill:#e8e8e0; fill-opacity:1.0000; stroke:none;">
<circle cx="7.3950" cy="45.0350" r="0.1750" /> 
</g>
<g style="fill:#e8e8e0; fill-opacity:1.0000; stroke:none;">
<circle cx="91.6450" cy="41.7250" r="0.1750" /> 
</g>
<g style="fill:#e8e8e0; fill-opacity:1.0000; stroke:none;">
<circle cx="91.6450" cy="44.2650" r="0.1750" /> 
</g>
<g style="fill:#e8e8e0; fill-opacity:1.0000; stroke:none;">
<circle cx="91.4450" cy="73.4100" r="0.1750" /> 
</g>
<g style="fill:#e8e8e0; fill-opacity:1.0000; stroke:none;">
<circle cx="93.9850" cy="73.4100" r="0.1750" /> 
</g>
<g style="fill:#e8e8e0; fill-opacity:1.0000; stroke:none;">
<circle cx="96.5250" cy="73.4100" r="0.1750" /> 
</g>
<g style="fill:#e8e8e0; fill-opacity:1.0000; stroke:none;">
<circle cx="99.0650" cy="73.4100" r="0.1750" /> 
</g>
<g style="fill:#e8e8e0; fill-opacity:1.0000; stroke:none;">
<circle cx="101.6050" cy="73.4100" r="0.1750" /> 
</g>
<g style="fill:#e8e8e0; fill-opacity:1.0000; stroke:none;">
<circle cx="104.1450" cy="73.4100" r="0.1750" /> 
</g>
<g style="fill:#e8e8e0; fill-opacity:1.0000; stroke:none;">
<circle cx="106.6850" cy="73.4100" r="0.1750" /> 
</g>
<g style="fill:#e8e8e0; fill-opacity:1.0000; stroke:none;">
<circle cx="109.2250" cy="73.4100" r="0.1750" /> 
</g>
<g style="fill:#e8e8e0; fill-opacity:1.0000; stroke:none;">
<circle cx="111.7650" cy="73.4100" r="0.1750" /> 
</g>
<g style="fill:#e8e8e0; fill-opacity:1.0000; stroke:none;">
<circle cx="114.3050" cy="73.4100" r="0.1750" /> 
</g>
<g style="fill:#e8e8e0; fill-opacity:1.0000; stroke:none;">
<circle cx="116.8450" cy="73.4100" r="0.1750" /> 
</g>
<g style="fill:#e8e8e0; fill-opacity:1.0000; stroke:none;">
<circle cx="119.3850" cy="73.4100" r="0.1750" /> 
</g>
<g style="fill:#e8e8e0; fill-opacity:1.0000; stroke:none;">
<circle cx="121.9250" cy="73.4100" r="0.1750" /> 
</g>
<g style="fill:#e8e8e0; fill-opacity:1.0000; stroke:none;">
<circle cx="124.4650" cy="73.4100" r="0.1750" /> 
</g>
<g style="fill:#e8e8e0; fill-opacity:1.0000; stroke:none;">
<circle cx="127.0050" cy="73.4100" r="0.1750" /> 
</g>
<g style="fill:#e8e8e0; fill-opacity:1.0000; stroke:none;">
<circle cx="127.0050" cy="58.1700" r="0.1750" /> 
</g>
<g style="fill:#e8e8e0; fill-opacity:1.0000; stroke:none;">
<circle cx="124.4650" cy="58.1700" r="0.1750" /> 
</g>
<g style="fill:#e8e8e0; fill-opacity:1.0000; stroke:none;">
<circle cx="121.9250" cy="58.1700" r="0.1750" /> 
</g>
<g style="fill:#e8e8e0; fill-opacity:1.0000; stroke:none;">
<circle cx="119.3850" cy="58.1700" r="0.1750" /> 
</g>
<g style="fill:#e8e8e0; fill-opacity:1.0000; stroke:none;">
<circle cx="116.8450" cy="58.1700" r="0.1750" /> 
</g>
<g style="fill:#e8e8e0; fill-opacity:1.0000; stroke:none;">
<circle cx="114.3050" cy="58.1700" r="0.1750" /> 
</g>
<g style="fill:#e8e8e0; fill-opacity:1.0000; stroke:none;">
<circle cx="111.7650" cy="58.1700" r="0.1750" /> 
</g>
<g style="fill:#e8e8e0; fill-opacity:1.0000; stroke:none;">
<circle cx="109.2250" cy="58.1700" r="0.1750" /> 
</g>
<g style="fill:#e8e8e0; fill-opacity:1.0000; stroke:none;">
<circle cx="106.6850" cy="58.1700" r="0.1750" /> 
</g>
<g style="fill:#e8e8e0; fill-opacity:1.0000; stroke:none;">
<circle cx="104.1450" cy="58.1700" r="0.1750" /> 
</g>
<g style="fill:#e8e8e0; fill-opacity:1.0000; stroke:none;">
<circle cx="101.6050" cy="58.1700" r="0.1750" /> 
</g>
<g style="fill:#e8e8e0; fill-opacity:1.0000; stroke:none;">
<circle cx="99.0650" cy="58.1700" r="0.1750" /> 
</g>
<g style="fill:#e8e8e0; fill-opacity:1.0000; stroke:none;">
<circle cx="96.5250" cy="58.1700" r="0.1750" /> 
</g>
<g style="fill:#e8e8e0; fill-opacity:1.0000; stroke:none;">
<circle cx="93.9850" cy="58.1700" r="0.1750" /> 
</g>
<g style="fill:#e8e8e0; fill-opacity:1.0000; stroke:none;">
<circle cx="91.4450" cy="58.1700" r="0.1750" /> 
</g>
<g style="fill:#e8e8e0; fill-opacity:1.0000; stroke:none;">
<circle cx="17.5000" cy="33.5450" r="0.1750" /> 
</g>
<g style="fill:#e8e8e0; fill-opacity:1.0000; stroke:none;">
<circle cx="17.5000" cy="28.4650" r="0.1750" /> 
</g>
<g style="fill:#e8e8e0; fill-opacity:1.0000; stroke:none;">
<circle cx="7.3950" cy="51.4550" r="0.1750" /> 
</g>
<g style="fill:#e8e8e0; fill-opacity:1.0000; stroke:none;">
<circle cx="7.3950" cy="56.5350" r="0.1750" /> 
</g>
<g style="fill:#e8e8e0; fill-opacity:1.0000; stroke:none;">
<circle cx="7.1450" cy="74.0100" r="0.1750" /> 
</g>
<g style="fill:#e8e8e0; fill-opacity:1.0000; stroke:none;">
<circle cx="7.1450" cy="79.0900" r="0.1750" /> 
</g>
<g style="fill:#000000; fill-opacity:1.0000; stroke:none;">
<circle cx="131.2900" cy="4.5000" r="0.1750" /> 
</g>
<g style="fill:#e8e8e0; fill-opacity:1.0000; stroke:none;">
<circle cx="84.0400" cy="22.9550" r="0.1750" /> 
</g>
<g style="fill:#e8e8e0; fill-opacity:1.0000; stroke:none;">
<circle cx="84.0400" cy="28.0350" r="0.1750" /> 
</g>
<g style="fill:#000000; fill-opacity:1.0000; stroke:none;">
<circle cx="16.5000" cy="72.6850" r="0.1750" /> 
</g>
<g style="fill:#e8e8e0; fill-opacity:1.0000; stroke:none;">
<circle cx="31.4350" cy="47.8000" r="0.1750" /> 
</g>
<g style="fill:#e8e8e0; fill-opacity:1.0000; stroke:none;">
<circle cx="31.4350" cy="51.2000" r="0.1750" /> 
</g>
<g style="fill:#e8e8e0; fill-opacity:1.0000; stroke:none;">
<circle cx="41.3550" cy="47.8000" r="0.1750" /> 
</g>
<g style="fill:#e8e8e0; fill-opacity:1.0000; stroke:none;">
<circle cx="41.3550" cy="51.2000" r="0.1750" /> 
</g>
<g style="fill:#e8e8e0; fill-opacity:1.0000; stroke:none;">
<circle cx="128.6450" cy="47.2500" r="0.1750" /> 
</g>
<g style="fill:#e8e8e0; fill-opacity:1.0000; stroke:none;">
<circle cx="128.6450" cy="42.1700" r="0.1750" /> 
</g>
<g style="fill:#e8e8e0; fill-opacity:1.0000; stroke:none;">
<circle cx="128.6450" cy="37.0900" r="0.1750" /> 
</g>
<g style="fill:#e8e8e0; fill-opacity:1.0000; stroke:none;">
<circle cx="7.1450" cy="62.7500" r="0.1750" /> 
</g>
<g style="fill:#e8e8e0; fill-opacity:1.0000; stroke:none;">
<circle cx="7.1450" cy="67.8300" r="0.1750" /> 
</g>
<g style="fill:#000000; fill-opacity:1.0000; stroke:none;">
<circle cx="131.2900" cy="79.6850" r="0.1750" /> 
</g>
<g style="fill:#e8e8e0; fill-opacity:1.0000; stroke:none;">
<circle cx="116.2375" cy="37.1325" r="0.1750" /> 
</g>
<g style="fill:#e8e8e0; fill-opacity:1.0000; stroke:none;">
<circle cx="116.2375" cy="39.6725" r="0.1750" /> 
</g>
<g style="fill:#e8e8e0; fill-opacity:1.0000; stroke:none;">
<circle cx="116.2375" cy="47.2925" r="0.1750" /> 
</g>
<g style="fill:#e8e8e0; fill-opacity:1.0000; stroke:none;">
<circle cx="121.3175" cy="47.2925" r="0.1750" /> 
</g>
<g style="fill:#e8e8e0; fill-opacity:1.0000; stroke:none;">
<circle cx="121.3175" cy="39.6725" r="0.1750" /> 
</g>
<g style="fill:#e8e8e0; fill-opacity:1.0000; stroke:none;">
<circle cx="121.3175" cy="37.1325" r="0.1750" /> 
</g> 
</svg>
