<?xml version="1.0" standalone="no"?>
 <!DOCTYPE svg PUBLIC "-//W3C//DTD SVG 1.1//EN" 
 "http://www.w3.org/Graphics/SVG/1.1/DTD/svg11.dtd"> 
<svg
  xmlns:svg="http://www.w3.org/2000/svg"
  xmlns="http://www.w3.org/2000/svg"
  xmlns:xlink="http://www.w3.org/1999/xlink"
  xmlns:inkscape="http://www.inkscape.org/namespaces/inkscape"
  version="1.1"
  width="135.7884mm" height="84.1756mm" viewBox="0.0000 0.0000 135.7884 84.1756">
<title>SVG Image created as ign_human_bot.svg date 2026-09-02T23:36:24 </title>
  <desc>Image generated by PCBNEW </desc>
<g style="fill:#000000; fill-opacity:1.0000;stroke:#000000; stroke-opacity:1.0000;
stroke-linecap:round; stroke-linejoin:round;"
 transform="translate(0 0) scale(1 1)">
<path style="fill:#1f5fa8; fill-opacity:1.0000; stroke:none;fill-rule:evenodd;"
d="M 53.5450,51.4700
53.4493,51.4510
53.3682,51.3968
53.3140,51.3157
53.2950,51.2200
53.2950,48.5200
53.3140,48.4243
53.3682,48.3432
53.4493,48.2890
53.5450,48.2700
56.2450,48.2700
56.3407,48.2890
56.4218,48.3432
56.4760,48.4243
56.4950,48.5200
56.4950,51.2200
56.4760,51.3157
56.4218,51.3968
56.3407,51.4510
56.2450,51.4700
Z" /> 
</g>
<g style="fill:#1f5fa8; fill-opacity:1.0000; stroke:none;">
<circle cx="54.8950" cy="34.6300" r="1.6000" /> 
<path style="fill:#1f5fa8; fill-opacity:1.0000; stroke:none;fill-rule:evenodd;"
d="M 8.4450,38.6550
8.5407,38.6740
8.6218,38.7282
8.6760,38.8093
8.6950,38.9050
8.6950,41.0050
8.6760,41.1007
8.6218,41.1818
8.5407,41.2360
8.4450,41.2550
6.3450,41.2550
6.2493,41.2360
6.1682,41.1818
6.1140,41.1007
6.0950,41.0050
6.0950,38.9050
6.1140,38.8093
6.1682,38.7282
6.2493,38.6740
6.3450,38.6550
Z" /> 
<circle cx="7.3950" cy="45.0350" r="1.3000" /> 
<path style="fill:#1f5fa8; fill-opacity:1.0000; stroke:none;fill-rule:evenodd;"
d="M 90.7950,42.5750
90.7950,40.8750
92.4950,40.8750
92.4950,42.5750
Z" /> 
<circle cx="91.6450" cy="44.2650" r="0.8500" /> 
<path style="fill:#1f5fa8; fill-opacity:1.0000; stroke:none;fill-rule:evenodd;"
d="M 92.2450,74.2100
90.6450,74.2100
90.6450,72.6100
92.2450,72.6100
Z" /> 
<circle cx="93.9850" cy="73.4100" r="0.8000" /> 
<circle cx="96.5250" cy="73.4100" r="0.8000" /> 
<circle cx="99.0650" cy="73.4100" r="0.8000" /> 
<circle cx="101.6050" cy="73.4100" r="0.8000" /> 
<circle cx="104.1450" cy="73.4100" r="0.8000" /> 
<circle cx="106.6850" cy="73.4100" r="0.8000" /> 
<circle cx="109.2250" cy="73.4100" r="0.8000" /> 
<circle cx="111.7650" cy="73.4100" r="0.8000" /> 
<circle cx="114.3050" cy="73.4100" r="0.8000" /> 
<circle cx="116.8450" cy="73.4100" r="0.8000" /> 
<circle cx="119.3850" cy="73.4100" r="0.8000" /> 
<circle cx="121.9250" cy="73.4100" r="0.8000" /> 
<circle cx="124.4650" cy="73.4100" r="0.8000" /> 
<circle cx="127.0050" cy="73.4100" r="0.8000" /> 
<circle cx="127.0050" cy="58.1700" r="0.8000" /> 
<circle cx="124.4650" cy="58.1700" r="0.8000" /> 
<circle cx="121.9250" cy="58.1700" r="0.8000" /> 
<circle cx="119.3850" cy="58.1700" r="0.8000" /> 
<circle cx="116.8450" cy="58.1700" r="0.8000" /> 
<circle cx="114.3050" cy="58.1700" r="0.8000" /> 
<circle cx="111.7650" cy="58.1700" r="0.8000" /> 
<circle cx="109.2250" cy="58.1700" r="0.8000" /> 
<circle cx="106.6850" cy="58.1700" r="0.8000" /> 
<circle cx="104.1450" cy="58.1700" r="0.8000" /> 
<circle cx="101.6050" cy="58.1700" r="0.8000" /> 
<circle cx="99.0650" cy="58.1700" r="0.8000" /> 
<circle cx="96.5250" cy="58.1700" r="0.8000" /> 
<circle cx="93.9850" cy="58.1700" r="0.8000" /> 
<circle cx="91.4450" cy="58.1700" r="0.8000" /> 
<path style="fill:#1f5fa8; fill-opacity:1.0000; stroke:none;fill-rule:evenodd;"
d="M 16.4500,34.8450
16.3543,34.8260
16.2732,34.7718
16.2190,34.6907
16.2000,34.5950
16.2000,32.4950
16.2190,32.3993
16.2732,32.3182
16.3543,32.2640
16.4500,32.2450
18.5500,32.2450
18.6457,32.2640
18.7268,32.3182
18.7810,32.3993
18.8000,32.4950
18.8000,34.5950
18.7810,34.6907
18.7268,34.7718
18.6457,34.8260
18.5500,34.8450
Z" /> 
<circle cx="17.5000" cy="28.4650" r="1.3000" /> 
<path style="fill:#1f5fa8; fill-opacity:1.0000; stroke:none;fill-rule:evenodd;"
d="M 8.4450,50.1550
8.5407,50.1740
8.6218,50.2282
8.6760,50.3093
8.6950,50.4050
8.6950,52.5050
8.6760,52.6007
8.6218,52.6818
8.5407,52.7360
8.4450,52.7550
6.3450,52.7550
6.2493,52.7360
6.1682,52.6818
6.1140,52.6007
6.0950,52.5050
6.0950,50.4050
6.1140,50.3093
6.1682,50.2282
6.2493,50.1740
6.3450,50.1550
Z" /> 
<circle cx="7.3950" cy="56.5350" r="1.3000" /> 
<path style="fill:#1f5fa8; fill-opacity:1.0000; stroke:none;fill-rule:evenodd;"
d="M 8.1950,72.7100
8.2907,72.7290
8.3718,72.7832
8.4260,72.8643
8.4450,72.9600
8.4450,75.0600
8.4260,75.1557
8.3718,75.2368
8.2907,75.2910
8.1950,75.3100
6.0950,75.3100
5.9993,75.2910
5.9182,75.2368
5.8640,75.1557
5.8450,75.0600
5.8450,72.9600
5.8640,72.8643
5.9182,72.7832
5.9993,72.7290
6.0950,72.7100
Z" /> 
<circle cx="7.1450" cy="79.0900" r="1.3000" /> 
<path style="fill:#1f5fa8; fill-opacity:1.0000; stroke:none;fill-rule:evenodd;"
d="M 85.0900,21.6550
85.1857,21.6740
85.2668,21.7282
85.3210,21.8093
85.3400,21.9050
85.3400,24.0050
85.3210,24.1007
85.2668,24.1818
85.1857,24.2360
85.0900,24.2550
82.9900,24.2550
82.8943,24.2360
82.8132,24.1818
82.7590,24.1007
82.7400,24.0050
82.7400,21.9050
82.7590,21.8093
82.8132,21.7282
82.8943,21.6740
82.9900,21.6550
Z" /> 
<circle cx="84.0400" cy="28.0350" r="1.3000" /> 
<circle cx="31.4350" cy="47.8000" r="1.3900" /> 
<circle cx="31.4350" cy="51.2000" r="1.3900" /> 
<circle cx="41.3550" cy="47.8000" r="1.3900" /> 
<circle cx="41.3550" cy="51.2000" r="1.3900" /> 
<path style="fill:#1f5fa8; fill-opacity:1.0000; stroke:none;fill-rule:evenodd;"
d="M 127.5950,48.5500
127.4993,48.5310
127.4182,48.4768
127.3640,48.3957
127.3450,48.3000
127.3450,46.2000
127.3640,46.1043
127.4182,46.0232
127.4993,45.9690
127.5950,45.9500
129.6950,45.9500
129.7907,45.9690
129.8718,46.0232
129.9260,46.1043
129.9450,46.2000
129.9450,48.3000
129.9260,48.3957
129.8718,48.4768
129.7907,48.5310
129.6950,48.5500
Z" /> 
<circle cx="128.6450" cy="42.1700" r="1.3000" /> 
<circle cx="128.6450" cy="37.0900" r="1.3000" /> 
<path style="fill:#1f5fa8; fill-opacity:1.0000; stroke:none;fill-rule:evenodd;"
d="M 8.1950,61.4500
8.2907,61.4690
8.3718,61.5232
8.4260,61.6043
8.4450,61.7000
8.4450,63.8000
8.4260,63.8957
8.3718,63.9768
8.2907,64.0310
8.1950,64.0500
6.0950,64.0500
5.9993,64.0310
5.9182,63.9768
5.8640,63.8957
5.8450,63.8000
5.8450,61.7000
5.8640,61.6043
5.9182,61.5232
5.9993,61.4690
6.0950,61.4500
Z" /> 
<circle cx="7.1450" cy="67.8300" r="1.3000" /> 
<path style="fill:#1f5fa8; fill-opacity:1.0000; stroke:none;fill-rule:evenodd;"
d="M 115.2375,38.1325
115.2375,36.1325
117.2375,36.1325
117.2375,38.1325
Z" /> 
<circle cx="116.2375" cy="39.6725" r="1.0000" /> 
<circle cx="116.2375" cy="47.2925" r="1.0000" /> 
<circle cx="121.3175" cy="47.2925" r="1.0000" /> 
<circle cx="121.3175" cy="39.6725" r="1.0000" /> 
<circle cx="121.3175" cy="37.1325" r="1.0000" /> 
<circle cx="107.0781" cy="37.1671" r="0.4000" /> 
<circle cx="85.9823" cy="40.9273" r="0.4000" /> 
<circle cx="94.7241" cy="42.8650" r="0.4000" /> 
<circle cx="95.7896" cy="36.0000" r="0.4000" /> 
<circle cx="93.6241" cy="44.2650" r="0.4000" /> 
<circle cx="35.1000" cy="63.0000" r="0.4000" /> 
<circle cx="91.3200" cy="35.0900" r="0.4000" /> 
<circle cx="91.8400" cy="24.2050" r="0.4000" /> 
<circle cx="22.6450" cy="47.0000" r="0.4000" /> 
<circle cx="93.8950" cy="39.9150" r="0.4000" /> 
<circle cx="75.2950" cy="32.1550" r="0.4000" /> 
<circle cx="87.2950" cy="16.0250" r="0.4000" /> 
<circle cx="61.8325" cy="61.3650" r="0.4000" /> 
<circle cx="53.4575" cy="61.3650" r="0.4000" /> 
<circle cx="96.5250" cy="83.1800" r="0.4000" /> 
<circle cx="68.1350" cy="64.9700" r="0.4000" /> 
<circle cx="113.1450" cy="47.4900" r="0.4000" /> 
<circle cx="22.8075" cy="55.0000" r="0.4000" /> 
<circle cx="104.9879" cy="47.3371" r="0.4000" /> 
<circle cx="46.3950" cy="33.8000" r="0.4000" /> 
<circle cx="99.0650" cy="50.9200" r="0.4000" /> 
<circle cx="111.6000" cy="34.5000" r="0.4000" /> 
<circle cx="49.2207" cy="29.9371" r="0.4000" /> 
<circle cx="65.6358" cy="31.4220" r="0.4000" /> 
<circle cx="95.7241" cy="44.2650" r="0.4000" /> 
<circle cx="88.0823" cy="40.9273" r="0.4000" /> 
<circle cx="97.8896" cy="35.0900" r="0.4000" /> 
<circle cx="108.5631" cy="38.6520" r="0.4000" /> 
<circle cx="50.5913" cy="52.0463" r="0.4000" /> 
<circle cx="54.8057" cy="47.0000" r="0.4000" /> 
<circle cx="71.4755" cy="68.7855" r="0.4000" /> 
<circle cx="71.1857" cy="70.8568" r="0.4000" /> 
<circle cx="106.0672" cy="76.0322" r="0.4000" /> 
<circle cx="117.2257" cy="44.5900" r="0.4000" /> 
<circle cx="26.3950" cy="80.7578" r="0.4000" /> 
<circle cx="12.0835" cy="74.0100" r="0.4000" /> 
<circle cx="43.7852" cy="42.0375" r="0.4000" /> 
<circle cx="92.1450" cy="49.0000" r="0.4000" /> 
<circle cx="64.3343" cy="75.9357" r="0.4000" /> 
<circle cx="65.6993" cy="71.8182" r="0.4000" /> 
<circle cx="96.2573" cy="29.2050" r="0.4000" /> 
<circle cx="87.8404" cy="24.4399" r="0.4000" /> 
<circle cx="57.6832" cy="58.4593" r="0.4000" /> 
<circle cx="64.6692" cy="70.2167" r="0.4000" /> 
<circle cx="72.0950" cy="35.6127" r="0.4000" /> 
<circle cx="84.1622" cy="26.0772" r="0.4000" /> 
<circle cx="113.5421" cy="38.3100" r="0.4000" /> 
<circle cx="125.1648" cy="42.9488" r="0.4000" /> 
<circle cx="130.7134" cy="75.4100" r="0.4000" /> 
<circle cx="69.3829" cy="81.9254" r="0.4000" /> 
<circle cx="58.0000" cy="31.2500" r="0.4000" /> 
<circle cx="43.0896" cy="33.7250" r="0.4000" /> 
<circle cx="13.4849" cy="62.9849" r="0.4000" /> 
<circle cx="10.6169" cy="62.2479" r="0.4000" /> 
<circle cx="68.1000" cy="61.5000" r="0.4000" /> 
<circle cx="63.4974" cy="56.2508" r="0.4000" /> 
<circle cx="31.5151" cy="54.0151" r="0.4000" /> 
<circle cx="45.6000" cy="66.0000" r="0.4000" /> 
<circle cx="133.3605" cy="37.0900" r="0.4000" /> 
<circle cx="119.4697" cy="36.3937" r="0.4000" /> 
<circle cx="103.1921" cy="39.8400" r="0.4000" /> 
<circle cx="10.2335" cy="42.0550" r="0.4000" /> 
<circle cx="21.3453" cy="40.6289" r="0.4000" /> 
<circle cx="46.4849" cy="53.9849" r="0.4000" /> 
<circle cx="52.7450" cy="44.9393" r="0.4000" /> 
<circle cx="59.4950" cy="49.8700" r="0.4000" /> 
<circle cx="43.5557" cy="39.7500" r="0.4000" /> 
<circle cx="20.3385" cy="35.6450" r="0.4000" /> 
<circle cx="123.4175" cy="44.5637" r="0.4000" /> 
<circle cx="72.2625" cy="75.5000" r="0.4000" /> 
<circle cx="5.0450" cy="60.7500" r="0.4000" /> 
<circle cx="30.0151" cy="59.9849" r="0.4000" /> 
<circle cx="11.9849" cy="80.9849" r="0.4000" /> 
<circle cx="54.4950" cy="32.8530" r="0.4000" /> 
<circle cx="124.4849" cy="40.4849" r="0.4000" /> 
<circle cx="35.6321" cy="45.7029" r="0.4000" /> 
<circle cx="9.2450" cy="64.7500" r="0.4000" /> 
<circle cx="130.7450" cy="39.6700" r="0.4000" /> 
<circle cx="44.1000" cy="69.0000" r="0.4000" /> 
<circle cx="86.6282" cy="45.8991" r="0.4000" /> 
<circle cx="87.6299" cy="37.0749" r="0.4000" /> 
<circle cx="20.1269" cy="81.1944" r="0.4000" /> 
<circle cx="61.4849" cy="73.4849" r="0.4000" /> 
<circle cx="72.7425" cy="37.1763" r="0.4000" /> 
<circle cx="102.0000" cy="48.0000" r="0.4000" /> 
<circle cx="23.8628" cy="78.0900" r="0.4000" /> 
<circle cx="115.1257" cy="44.5900" r="0.4000" /> 
<circle cx="110.6450" cy="47.4501" r="0.4000" /> 
<circle cx="9.9835" cy="74.0100" r="0.4000" /> 
<circle cx="41.6852" cy="42.0375" r="0.4000" /> 
<circle cx="93.0000" cy="48.0000" r="0.4000" /> 
<circle cx="113.6950" cy="42.3400" r="0.4000" /> 
<circle cx="109.9450" cy="37.7400" r="0.4000" /> 
<circle cx="43.5000" cy="66.0000" r="0.4000" /> 
<circle cx="48.8950" cy="34.8000" r="0.4000" /> 
<circle cx="66.7075" cy="67.3912" r="0.4000" /> 
<circle cx="128.6134" cy="75.4100" r="0.4000" /> 
<circle cx="61.5590" cy="59.0520" r="0.4000" /> 
<circle cx="67.8980" cy="80.4405" r="0.4000" /> 
<circle cx="84.2832" cy="42.5507" r="0.4000" /> 
<circle cx="60.0832" cy="57.4593" r="0.4000" /> 
<circle cx="76.3802" cy="34.6763" r="0.4000" /> 
<circle cx="100.0250" cy="54.7800" r="0.4000" /> 
<circle cx="59.7832" cy="58.4593" r="0.4000" /> 
<circle cx="82.3555" cy="22.9550" r="0.4000" /> 
<circle cx="63.1843" cy="68.7318" r="0.4000" /> 
<circle cx="72.6950" cy="33.5127" r="0.4000" /> 
<circle cx="65.8193" cy="74.4507" r="0.4000" /> 
<circle cx="67.1843" cy="70.3332" r="0.4000" /> 
<circle cx="85.3832" cy="43.9507" r="0.4000" /> 
<circle cx="10.2335" cy="39.9550" r="0.4000" /> 
<circle cx="19.5000" cy="39.0000" r="0.4000" /> 
<circle cx="55.9000" cy="31.2500" r="0.4000" /> 
<circle cx="40.8872" cy="32.9105" r="0.4000" /> 
<circle cx="106.4921" cy="39.0100" r="0.4000" /> 
<circle cx="104.5823" cy="74.5473" r="0.4000" /> 
<circle cx="50.6450" cy="44.9393" r="0.4000" /> 
<circle cx="45.0000" cy="52.5000" r="0.4000" /> 
<circle cx="48.1913" cy="52.0463" r="0.4000" /> 
<circle cx="47.1913" cy="52.0463" r="0.4000" /> 
<circle cx="19.9825" cy="55.0000" r="0.4000" /> 
<circle cx="19.9825" cy="56.3446" r="0.4000" /> 
<circle cx="31.5000" cy="58.5000" r="0.4000" /> 
<circle cx="62.1472" cy="57.3672" r="0.4000" /> 
<circle cx="66.2892" cy="62.0125" r="0.4000" /> 
<circle cx="7.1450" cy="60.7500" r="0.4000" /> 
<circle cx="64.1755" cy="62.8850" r="0.4000" /> 
<circle cx="62.1756" cy="62.6350" r="0.4000" /> 
<circle cx="69.0857" cy="70.8568" r="0.4000" /> 
<circle cx="69.3755" cy="68.7855" r="0.4000" /> 
<circle cx="131.2605" cy="37.0900" r="0.4000" /> 
<circle cx="117.9848" cy="34.9088" r="0.4000" /> 
<circle cx="122.6548" cy="43.0098" r="0.4000" /> 
<circle cx="113.5421" cy="40.4100" r="0.4000" /> 
</g>
<g style="fill:none; 
stroke:#1f5fa8; stroke-width:0.2540; stroke-opacity:1; 
stroke-linecap:round; stroke-linejoin:round;">
<path d="M106.2350 36.0900
L107.0781 36.9331
" />
<path d="M107.0781 36.9331
L107.0781 37.1671
" />
<path d="M95.7896 36.0000
L95.7896 41.7995
" />
<path d="M95.9496 36.0900
L106.2350 36.0900
" />
<path d="M95.7896 36.2500
L95.9496 36.0900
" />
<path d="M95.7896 41.7995
L94.7241 42.8650
" />
<path d="M89.3200 44.2650
L85.9823 40.9273
" />
<path d="M93.6241 44.2650
L89.3200 44.2650
" />
</g>
<g style="fill:none; 
stroke:#1f5fa8; stroke-width:1.0000; stroke-opacity:1; 
stroke-linecap:round; stroke-linejoin:round;">
<path d="M53.2006 46.0393
L53.8450 45.3950
" />
<path d="M41.6450 40.5000
L41.6852 40.5402
" />
<path d="M51.8450 45.5950
L52.2894 46.0393
" />
<path d="M53.2006 43.8393
L52.2894 43.8393
" />
<path d="M52.2894 43.8393
L51.7657 44.3630
" />
<path d="M41.6450 40.1050
L41.6450 40.5000
" />
<path d="M48.2350 78.0900
L51.8450 74.4800
" />
<path d="M49.3506 33.7000
L48.1950 33.7000
" />
<path d="M53.8450 45.3950
L53.8450 44.4837
" />
<path d="M49.9950 34.3444
L49.3506 33.7000
" />
<path d="M49.9950 35.2556
L49.9950 34.3444
" />
<path d="M51.1421 43.7393
L50.1479 43.7393
" />
<path d="M46.2405 51.3000
L45.7592 51.3000
" />
<path d="M51.7657 44.3630
L51.1421 43.7393
" />
<path d="M43.1000 38.6500
L41.6450 40.1050
" />
<path d="M50.1479 43.7393
L49.4450 44.4423
" />
<path d="M48.1021 48.9571
L48.1021 40.3121
" />
<path d="M22.8628 78.0900
L48.2350 78.0900
" />
<path d="M53.8450 44.4837
L53.2006 43.8393
" />
<path d="M51.8450 74.4800
L51.8450 45.5950
" />
<path d="M41.6852 40.5402
L41.6852 42.0375
" />
<path d="M49.8950 35.3556
L49.9950 35.2556
" />
<path d="M49.4450 48.0955
L46.2405 51.3000
" />
<path d="M45.7592 51.3000
L48.1021 48.9571
" />
<path d="M43.2450 38.6500
L43.1000 38.6500
" />
<path d="M48.1021 40.3121
L49.8950 38.5192
" />
</g>
<g style="fill:none; 
stroke:#1f5fa8; stroke-width:0.6000; stroke-opacity:1; 
stroke-linecap:round; stroke-linejoin:round;">
<path d="M93.0000 48.0000
L102.0000 48.0000
" />
</g>
<g style="fill:none; 
stroke:#1f5fa8; stroke-width:1.0000; stroke-opacity:1; 
stroke-linecap:round; stroke-linejoin:round;">
<path d="M23.8628 78.0900
L14.0635 78.0900
" />
</g>
<g style="fill:none; 
stroke:#1f5fa8; stroke-width:0.6000; stroke-opacity:1; 
stroke-linecap:round; stroke-linejoin:round;">
<path d="M113.5051 44.5900
L110.6450 47.4501
" />
</g>
<g style="fill:none; 
stroke:#1f5fa8; stroke-width:1.0000; stroke-opacity:1; 
stroke-linecap:round; stroke-linejoin:round;">
<path d="M14.0635 78.0900
L9.9835 74.0100
" />
</g>
<g style="fill:none; 
stroke:#1f5fa8; stroke-width:0.6000; stroke-opacity:1; 
stroke-linecap:round; stroke-linejoin:round;">
<path d="M115.1257 44.5900
L113.5051 44.5900
" />
</g>
<g style="fill:none; 
stroke:#1f5fa8; stroke-width:1.0000; stroke-opacity:1; 
stroke-linecap:round; stroke-linejoin:round;">
<path d="M52.2894 46.0393
L53.2006 46.0393
" />
<path d="M49.8950 38.5192
L49.8950 35.3556
" />
<path d="M48.1950 33.7000
L43.2450 38.6500
" />
<path d="M49.4450 44.4423
L49.4450 48.0955
" />
</g>
<g style="fill:none; 
stroke:#1f5fa8; stroke-width:0.6000; stroke-opacity:1; 
stroke-linecap:round; stroke-linejoin:round;">
<path d="M43.5000 66.0000
L43.5000 52.1450
" />
<path d="M43.5000 52.1450
L47.1021 48.5429
" />
<path d="M47.1021 48.5429
L47.1021 39.8979
" />
<path d="M47.1021 39.8979
L48.8950 38.1050
" />
<path d="M48.8950 38.1050
L48.8950 34.8000
" />
<path d="M113.6950 42.3400
L109.9450 38.5900
" />
<path d="M109.9450 38.5900
L109.9450 37.7400
" />
</g>
<g style="fill:none; 
stroke:#1f5fa8; stroke-width:0.2540; stroke-opacity:1; 
stroke-linecap:round; stroke-linejoin:round;">
<path d="M66.7075 67.3912
L66.7075 64.2005
" />
<path d="M66.7075 64.2005
L61.5590 59.0520
" />
<path d="M128.6134 75.4100
L123.5829 80.4405
" />
<path d="M123.5829 80.4405
L67.8980 80.4405
" />
<path d="M85.4325 44.0000
L86.1450 44.0000
" />
<path d="M91.4180 49.2730
L91.4180 49.3011
" />
<path d="M86.1450 44.0000
L91.4180 49.2730
" />
<path d="M91.4180 49.3011
L96.8969 54.7800
" />
<path d="M84.2832 42.8507
L85.4325 44.0000
" />
<path d="M84.2832 42.5507
L84.2832 42.8507
" />
<path d="M76.3802 41.1623
L76.3802 34.6763
" />
<path d="M96.8969 54.7800
L100.0250 54.7800
" />
<path d="M65.8193 74.4507
L67.1843 73.0857
" />
<path d="M67.1843 73.0857
L67.1843 70.3332
" />
<path d="M59.7832 58.4593
L59.7832 65.3307
" />
<path d="M59.7832 65.3307
L63.1843 68.7318
" />
<path d="M72.6950 33.5127
L72.6950 32.6155
" />
<path d="M72.6950 32.6155
L82.3555 22.9550
" />
<path d="M60.0832 57.4593
L76.3802 41.1623
" />
</g>
<g style="fill:none; 
stroke:#1f5fa8; stroke-width:1.0000; stroke-opacity:1; 
stroke-linecap:round; stroke-linejoin:round;">
<path d="M10.2335 39.9550
L11.1885 39.0000
" />
<path d="M11.1885 39.0000
L19.5000 39.0000
" />
</g>
<g style="fill:none; 
stroke:#1f5fa8; stroke-width:0.2540; stroke-opacity:1; 
stroke-linecap:round; stroke-linejoin:round;">
<path d="M55.9000 31.2500
L42.5477 31.2500
" />
<path d="M42.5477 31.2500
L40.8872 32.9105
" />
<path d="M104.5823 74.5473
L104.1450 74.1100
" />
<path d="M104.1450 59.2970
L103.6782 59.2970
" />
<path d="M103.6782 59.2970
L103.0180 58.6368
" />
<path d="M103.0180 57.7032
L103.6782 57.0430
" />
<path d="M103.0180 58.6368
L103.0180 57.7032
" />
<path d="M104.1450 74.1100
L104.1450 59.2970
" />
<path d="M103.6782 57.0430
L104.1450 57.0430
" />
<path d="M104.1450 41.3571
L106.4921 39.0100
" />
<path d="M104.1450 57.0430
L104.1450 41.3571
" />
</g>
<g style="fill:none; 
stroke:#1f5fa8; stroke-width:1.0000; stroke-opacity:1; 
stroke-linecap:round; stroke-linejoin:round;">
<path d="M48.1913 52.0463
L47.7375 52.5000
" />
<path d="M47.1913 52.0463
L50.6450 48.5925
" />
<path d="M47.7375 52.5000
L45.0000 52.5000
" />
<path d="M50.6450 48.5925
L50.6450 44.9393
" />
</g>
<g style="fill:none; 
stroke:#1f5fa8; stroke-width:0.2540; stroke-opacity:1; 
stroke-linecap:round; stroke-linejoin:round;">
<path d="M19.9825 55.0000
L15.1084 59.8741
" />
<path d="M31.5000 58.5000
L22.1379 58.5000
" />
<path d="M15.1084 59.8741
L8.0209 59.8741
" />
<path d="M8.0209 59.8741
L7.1450 60.7500
" />
<path d="M66.2892 62.0125
L63.5008 59.2241
" />
<path d="M63.5008 59.2241
L63.5008 57.7208
" />
<path d="M63.5008 57.7208
L62.5008 57.7208
" />
<path d="M62.5008 57.7208
L62.1472 57.3672
" />
<path d="M22.1379 58.5000
L19.9825 56.3446
" />
<path d="M63.9255 62.6350
L62.1756 62.6350
" />
<path d="M69.0857 69.0752
L69.0857 70.8568
" />
<path d="M131.2605 37.0900
L129.0792 34.9088
" />
<path d="M129.0792 34.9088
L117.9848 34.9088
" />
<path d="M116.1419 43.0098
L122.6548 43.0098
" />
<path d="M113.5421 40.4100
L116.1419 43.0098
" />
</g>
<g style="fill:none; 
stroke:#555555; stroke-width:0.1000; stroke-opacity:1; 
stroke-linecap:round; stroke-linejoin:round;">
<path d="M0.0000 0.0000
L135.7900 0.0000
" />
<path d="M0.0000 84.1850
L0.0000 0.0000
" />
<path d="M135.7900 0.0000
L135.7900 84.1850
" />
<path d="M135.7900 84.1850
L0.0000 84.1850
" />
</g>
<g style="fill:#e8e8e0; fill-opacity:1.0000; stroke:none;">
<circle cx="107.0781" cy="37.1671" r="0.1750" /> 
<circle cx="85.9823" cy="40.9273" r="0.1750" /> 
<circle cx="94.7241" cy="42.8650" r="0.1750" /> 
<circle cx="95.7896" cy="36.0000" r="0.1750" /> 
<circle cx="93.6241" cy="44.2650" r="0.1750" /> 
<circle cx="35.1000" cy="63.0000" r="0.1750" /> 
<circle cx="91.3200" cy="35.0900" r="0.1750" /> 
<circle cx="91.8400" cy="24.2050" r="0.1750" /> 
<circle cx="22.6450" cy="47.0000" r="0.1750" /> 
<circle cx="93.8950" cy="39.9150" r="0.1750" /> 
<circle cx="75.2950" cy="32.1550" r="0.1750" /> 
<circle cx="87.2950" cy="16.0250" r="0.1750" /> 
<circle cx="61.8325" cy="61.3650" r="0.1750" /> 
<circle cx="53.4575" cy="61.3650" r="0.1750" /> 
<circle cx="96.5250" cy="83.1800" r="0.1750" /> 
<circle cx="68.1350" cy="64.9700" r="0.1750" /> 
<circle cx="113.1450" cy="47.4900" r="0.1750" /> 
<circle cx="22.8075" cy="55.0000" r="0.1750" /> 
<circle cx="104.9879" cy="47.3371" r="0.1750" /> 
<circle cx="46.3950" cy="33.8000" r="0.1750" /> 
<circle cx="99.0650" cy="50.9200" r="0.1750" /> 
<circle cx="111.6000" cy="34.5000" r="0.1750" /> 
<circle cx="49.2207" cy="29.9371" r="0.1750" /> 
<circle cx="65.6358" cy="31.4220" r="0.1750" /> 
<circle cx="95.7241" cy="44.2650" r="0.1750" /> 
<circle cx="88.0823" cy="40.9273" r="0.1750" /> 
<circle cx="97.8896" cy="35.0900" r="0.1750" /> 
<circle cx="108.5631" cy="38.6520" r="0.1750" /> 
<circle cx="50.5913" cy="52.0463" r="0.1750" /> 
<circle cx="54.8057" cy="47.0000" r="0.1750" /> 
<circle cx="71.4755" cy="68.7855" r="0.1750" /> 
<circle cx="71.1857" cy="70.8568" r="0.1750" /> 
<circle cx="106.0672" cy="76.0322" r="0.1750" /> 
<circle cx="117.2257" cy="44.5900" r="0.1750" /> 
<circle cx="26.3950" cy="80.7578" r="0.1750" /> 
<circle cx="12.0835" cy="74.0100" r="0.1750" /> 
<circle cx="43.7852" cy="42.0375" r="0.1750" /> 
<circle cx="92.1450" cy="49.0000" r="0.1750" /> 
<circle cx="64.3343" cy="75.9357" r="0.1750" /> 
<circle cx="65.6993" cy="71.8182" r="0.1750" /> 
<circle cx="96.2573" cy="29.2050" r="0.1750" /> 
<circle cx="87.8404" cy="24.4399" r="0.1750" /> 
<circle cx="57.6832" cy="58.4593" r="0.1750" /> 
<circle cx="64.6692" cy="70.2167" r="0.1750" /> 
<circle cx="72.0950" cy="35.6127" r="0.1750" /> 
<circle cx="84.1622" cy="26.0772" r="0.1750" /> 
<circle cx="113.5421" cy="38.3100" r="0.1750" /> 
<circle cx="125.1648" cy="42.9488" r="0.1750" /> 
<circle cx="130.7134" cy="75.4100" r="0.1750" /> 
<circle cx="69.3829" cy="81.9254" r="0.1750" /> 
<circle cx="58.0000" cy="31.2500" r="0.1750" /> 
<circle cx="43.0896" cy="33.7250" r="0.1750" /> 
<circle cx="13.4849" cy="62.9849" r="0.1750" /> 
<circle cx="10.6169" cy="62.2479" r="0.1750" /> 
<circle cx="68.1000" cy="61.5000" r="0.1750" /> 
<circle cx="63.4974" cy="56.2508" r="0.1750" /> 
<circle cx="31.5151" cy="54.0151" r="0.1750" /> 
<circle cx="45.6000" cy="66.0000" r="0.1750" /> 
<circle cx="133.3605" cy="37.0900" r="0.1750" /> 
<circle cx="119.4697" cy="36.3937" r="0.1750" /> 
<circle cx="103.1921" cy="39.8400" r="0.1750" /> 
<circle cx="10.2335" cy="42.0550" r="0.1750" /> 
<circle cx="21.3453" cy="40.6289" r="0.1750" /> 
<circle cx="46.4849" cy="53.9849" r="0.1750" /> 
<circle cx="52.7450" cy="44.9393" r="0.1750" /> 
<circle cx="59.4950" cy="49.8700" r="0.1750" /> 
<circle cx="43.5557" cy="39.7500" r="0.1750" /> 
<circle cx="20.3385" cy="35.6450" r="0.1750" /> 
<circle cx="123.4175" cy="44.5637" r="0.1750" /> 
<circle cx="72.2625" cy="75.5000" r="0.1750" /> 
<circle cx="5.0450" cy="60.7500" r="0.1750" /> 
<circle cx="30.0151" cy="59.9849" r="0.1750" /> 
<circle cx="11.9849" cy="80.9849" r="0.1750" /> 
<circle cx="54.4950" cy="32.8530" r="0.1750" /> 
<circle cx="124.4849" cy="40.4849" r="0.1750" /> 
<circle cx="35.6321" cy="45.7029" r="0.1750" /> 
<circle cx="9.2450" cy="64.7500" r="0.1750" /> 
<circle cx="130.7450" cy="39.6700" r="0.1750" /> 
<circle cx="44.1000" cy="69.0000" r="0.1750" /> 
<circle cx="86.6282" cy="45.8991" r="0.1750" /> 
<circle cx="87.6299" cy="37.0749" r="0.1750" /> 
<circle cx="20.1269" cy="81.1944" r="0.1750" /> 
<circle cx="61.4849" cy="73.4849" r="0.1750" /> 
<circle cx="72.7425" cy="37.1763" r="0.1750" /> 
<circle cx="102.0000" cy="48.0000" r="0.1750" /> 
<circle cx="23.8628" cy="78.0900" r="0.1750" /> 
<circle cx="115.1257" cy="44.5900" r="0.1750" /> 
<circle cx="110.6450" cy="47.4501" r="0.1750" /> 
<circle cx="9.9835" cy="74.0100" r="0.1750" /> 
<circle cx="41.6852" cy="42.0375" r="0.1750" /> 
<circle cx="93.0000" cy="48.0000" r="0.1750" /> 
<circle cx="113.6950" cy="42.3400" r="0.1750" /> 
<circle cx="109.9450" cy="37.7400" r="0.1750" /> 
<circle cx="43.5000" cy="66.0000" r="0.1750" /> 
<circle cx="48.8950" cy="34.8000" r="0.1750" /> 
<circle cx="66.7075" cy="67.3912" r="0.1750" /> 
<circle cx="128.6134" cy="75.4100" r="0.1750" /> 
<circle cx="61.5590" cy="59.0520" r="0.1750" /> 
<circle cx="67.8980" cy="80.4405" r="0.1750" /> 
<circle cx="84.2832" cy="42.5507" r="0.1750" /> 
<circle cx="60.0832" cy="57.4593" r="0.1750" /> 
<circle cx="76.3802" cy="34.6763" r="0.1750" /> 
<circle cx="100.0250" cy="54.7800" r="0.1750" /> 
<circle cx="59.7832" cy="58.4593" r="0.1750" /> 
<circle cx="82.3555" cy="22.9550" r="0.1750" /> 
<circle cx="63.1843" cy="68.7318" r="0.1750" /> 
<circle cx="72.6950" cy="33.5127" r="0.1750" /> 
<circle cx="65.8193" cy="74.4507" r="0.1750" /> 
<circle cx="67.1843" cy="70.3332" r="0.1750" /> 
<circle cx="85.3832" cy="43.9507" r="0.1750" /> 
<circle cx="10.2335" cy="39.9550" r="0.1750" /> 
<circle cx="19.5000" cy="39.0000" r="0.1750" /> 
<circle cx="55.9000" cy="31.2500" r="0.1750" /> 
<circle cx="40.8872" cy="32.9105" r="0.1750" /> 
<circle cx="106.4921" cy="39.0100" r="0.1750" /> 
<circle cx="104.5823" cy="74.5473" r="0.1750" /> 
<circle cx="50.6450" cy="44.9393" r="0.1750" /> 
<circle cx="45.0000" cy="52.5000" r="0.1750" /> 
<circle cx="48.1913" cy="52.0463" r="0.1750" /> 
<circle cx="47.1913" cy="52.0463" r="0.1750" /> 
<circle cx="19.9825" cy="55.0000" r="0.1750" /> 
<circle cx="19.9825" cy="56.3446" r="0.1750" /> 
<circle cx="31.5000" cy="58.5000" r="0.1750" /> 
<circle cx="62.1472" cy="57.3672" r="0.1750" /> 
<circle cx="66.2892" cy="62.0125" r="0.1750" /> 
<circle cx="7.1450" cy="60.7500" r="0.1750" /> 
<circle cx="64.1755" cy="62.8850" r="0.1750" /> 
<circle cx="62.1756" cy="62.6350" r="0.1750" /> 
<circle cx="69.0857" cy="70.8568" r="0.1750" /> 
<circle cx="69.3755" cy="68.7855" r="0.1750" /> 
<circle cx="131.2605" cy="37.0900" r="0.1750" /> 
<circle cx="117.9848" cy="34.9088" r="0.1750" /> 
<circle cx="122.6548" cy="43.0098" r="0.1750" /> 
<circle cx="113.5421" cy="40.4100" r="0.1750" /> 
</g>
<g style="fill:#000000; fill-opacity:1.0000; stroke:none;">
<circle cx="4.5000" cy="4.5000" r="0.1750" /> 
</g>
<g style="fill:#e8e8e0; fill-opacity:1.0000; stroke:none;">
<circle cx="54.8950" cy="49.8700" r="0.1750" /> 
</g>
<g style="fill:#e8e8e0; fill-opacity:1.0000; stroke:none;">
<circle cx="54.8950" cy="34.6300" r="0.1750" /> 
</g>
<g style="fill:#e8e8e0; fill-opacity:1.0000; stroke:none;">
<circle cx="7.3950" cy="39.9550" r="0.1750" /> 
</g>
<g style="fill:#e8e8e0; fill-opacity:1.0000; stroke:none;">
<circle cx="7.3950" cy="45.0350" r="0.1750" /> 
</g>
<g style="fill:#e8e8e0; fill-opacity:1.0000; stroke:none;">
<circle cx="91.6450" cy="41.7250" r="0.1750" /> 
</g>
<g style="fill:#e8e8e0; fill-opacity:1.0000; stroke:none;">
<circle cx="91.6450" cy="44.2650" r="0.1750" /> 
</g>
<g style="fill:#e8e8e0; fill-opacity:1.0000; stroke:none;">
<circle cx="91.4450" cy="73.4100" r="0.1750" /> 
</g>
<g style="fill:#e8e8e0; fill-opacity:1.0000; stroke:none;">
<circle cx="93.9850" cy="73.4100" r="0.1750" /> 
</g>
<g style="fill:#e8e8e0; fill-opacity:1.0000; stroke:none;">
<circle cx="96.5250" cy="73.4100" r="0.1750" /> 
</g>
<g style="fill:#e8e8e0; fill-opacity:1.0000; stroke:none;">
<circle cx="99.0650" cy="73.4100" r="0.1750" /> 
</g>
<g style="fill:#e8e8e0; fill-opacity:1.0000; stroke:none;">
<circle cx="101.6050" cy="73.4100" r="0.1750" /> 
</g>
<g style="fill:#e8e8e0; fill-opacity:1.0000; stroke:none;">
<circle cx="104.1450" cy="73.4100" r="0.1750" /> 
</g>
<g style="fill:#e8e8e0; fill-opacity:1.0000; stroke:none;">
<circle cx="106.6850" cy="73.4100" r="0.1750" /> 
</g>
<g style="fill:#e8e8e0; fill-opacity:1.0000; stroke:none;">
<circle cx="109.2250" cy="73.4100" r="0.1750" /> 
</g>
<g style="fill:#e8e8e0; fill-opacity:1.0000; stroke:none;">
<circle cx="111.7650" cy="73.4100" r="0.1750" /> 
</g>
<g style="fill:#e8e8e0; fill-opacity:1.0000; stroke:none;">
<circle cx="114.3050" cy="73.4100" r="0.1750" /> 
</g>
<g style="fill:#e8e8e0; fill-opacity:1.0000; stroke:none;">
<circle cx="116.8450" cy="73.4100" r="0.1750" /> 
</g>
<g style="fill:#e8e8e0; fill-opacity:1.0000; stroke:none;">
<circle cx="119.3850" cy="73.4100" r="0.1750" /> 
</g>
<g style="fill:#e8e8e0; fill-opacity:1.0000; stroke:none;">
<circle cx="121.9250" cy="73.4100" r="0.1750" /> 
</g>
<g style="fill:#e8e8e0; fill-opacity:1.0000; stroke:none;">
<circle cx="124.4650" cy="73.4100" r="0.1750" /> 
</g>
<g style="fill:#e8e8e0; fill-opacity:1.0000; stroke:none;">
<circle cx="127.0050" cy="73.4100" r="0.1750" /> 
</g>
<g style="fill:#e8e8e0; fill-opacity:1.0000; stroke:none;">
<circle cx="127.0050" cy="58.1700" r="0.1750" /> 
</g>
<g style="fill:#e8e8e0; fill-opacity:1.0000; stroke:none;">
<circle cx="124.4650" cy="58.1700" r="0.1750" /> 
</g>
<g style="fill:#e8e8e0; fill-opacity:1.0000; stroke:none;">
<circle cx="121.9250" cy="58.1700" r="0.1750" /> 
</g>
<g style="fill:#e8e8e0; fill-opacity:1.0000; stroke:none;">
<circle cx="119.3850" cy="58.1700" r="0.1750" /> 
</g>
<g style="fill:#e8e8e0; fill-opacity:1.0000; stroke:none;">
<circle cx="116.8450" cy="58.1700" r="0.1750" /> 
</g>
<g style="fill:#e8e8e0; fill-opacity:1.0000; stroke:none;">
<circle cx="114.3050" cy="58.1700" r="0.1750" /> 
</g>
<g style="fill:#e8e8e0; fill-opacity:1.0000; stroke:none;">
<circle cx="111.7650" cy="58.1700" r="0.1750" /> 
</g>
<g style="fill:#e8e8e0; fill-opacity:1.0000; stroke:none;">
<circle cx="109.2250" cy="58.1700" r="0.1750" /> 
</g>
<g style="fill:#e8e8e0; fill-opacity:1.0000; stroke:none;">
<circle cx="106.6850" cy="58.1700" r="0.1750" /> 
</g>
<g style="fill:#e8e8e0; fill-opacity:1.0000; stroke:none;">
<circle cx="104.1450" cy="58.1700" r="0.1750" /> 
</g>
<g style="fill:#e8e8e0; fill-opacity:1.0000; stroke:none;">
<circle cx="101.6050" cy="58.1700" r="0.1750" /> 
</g>
<g style="fill:#e8e8e0; fill-opacity:1.0000; stroke:none;">
<circle cx="99.0650" cy="58.1700" r="0.1750" /> 
</g>
<g style="fill:#e8e8e0; fill-opacity:1.0000; stroke:none;">
<circle cx="96.5250" cy="58.1700" r="0.1750" /> 
</g>
<g style="fill:#e8e8e0; fill-opacity:1.0000; stroke:none;">
<circle cx="93.9850" cy="58.1700" r="0.1750" /> 
</g>
<g style="fill:#e8e8e0; fill-opacity:1.0000; stroke:none;">
<circle cx="91.4450" cy="58.1700" r="0.1750" /> 
</g>
<g style="fill:#e8e8e0; fill-opacity:1.0000; stroke:none;">
<circle cx="17.5000" cy="33.5450" r="0.1750" /> 
</g>
<g style="fill:#e8e8e0; fill-opacity:1.0000; stroke:none;">
<circle cx="17.5000" cy="28.4650" r="0.1750" /> 
</g>
<g style="fill:#e8e8e0; fill-opacity:1.0000; stroke:none;">
<circle cx="7.3950" cy="51.4550" r="0.1750" /> 
</g>
<g style="fill:#e8e8e0; fill-opacity:1.0000; stroke:none;">
<circle cx="7.3950" cy="56.5350" r="0.1750" /> 
</g>
<g style="fill:#e8e8e0; fill-opacity:1.0000; stroke:none;">
<circle cx="7.1450" cy="74.0100" r="0.1750" /> 
</g>
<g style="fill:#e8e8e0; fill-opacity:1.0000; stroke:none;">
<circle cx="7.1450" cy="79.0900" r="0.1750" /> 
</g>
<g style="fill:#000000; fill-opacity:1.0000; stroke:none;">
<circle cx="131.2900" cy="4.5000" r="0.1750" /> 
</g>
<g style="fill:#e8e8e0; fill-opacity:1.0000; stroke:none;">
<circle cx="84.0400" cy="22.9550" r="0.1750" /> 
</g>
<g style="fill:#e8e8e0; fill-opacity:1.0000; stroke:none;">
<circle cx="84.0400" cy="28.0350" r="0.1750" /> 
</g>
<g style="fill:#000000; fill-opacity:1.0000; stroke:none;">
<circle cx="16.5000" cy="72.6850" r="0.1750" /> 
</g>
<g style="fill:#e8e8e0; fill-opacity:1.0000; stroke:none;">
<circle cx="31.4350" cy="47.8000" r="0.1750" /> 
</g>
<g style="fill:#e8e8e0; fill-opacity:1.0000; stroke:none;">
<circle cx="31.4350" cy="51.2000" r="0.1750" /> 
</g>
<g style="fill:#e8e8e0; fill-opacity:1.0000; stroke:none;">
<circle cx="41.3550" cy="47.8000" r="0.1750" /> 
</g>
<g style="fill:#e8e8e0; fill-opacity:1.0000; stroke:none;">
<circle cx="41.3550" cy="51.2000" r="0.1750" /> 
</g>
<g style="fill:#e8e8e0; fill-opacity:1.0000; stroke:none;">
<circle cx="128.6450" cy="47.2500" r="0.1750" /> 
</g>
<g style="fill:#e8e8e0; fill-opacity:1.0000; stroke:none;">
<circle cx="128.6450" cy="42.1700" r="0.1750" /> 
</g>
<g style="fill:#e8e8e0; fill-opacity:1.0000; stroke:none;">
<circle cx="128.6450" cy="37.0900" r="0.1750" /> 
</g>
<g style="fill:#e8e8e0; fill-opacity:1.0000; stroke:none;">
<circle cx="7.1450" cy="62.7500" r="0.1750" /> 
</g>
<g style="fill:#e8e8e0; fill-opacity:1.0000; stroke:none;">
<circle cx="7.1450" cy="67.8300" r="0.1750" /> 
</g>
<g style="fill:#000000; fill-opacity:1.0000; stroke:none;">
<circle cx="131.2900" cy="79.6850" r="0.1750" /> 
</g>
<g style="fill:#e8e8e0; fill-opacity:1.0000; stroke:none;">
<circle cx="116.2375" cy="37.1325" r="0.1750" /> 
</g>
<g style="fill:#e8e8e0; fill-opacity:1.0000; stroke:none;">
<circle cx="116.2375" cy="39.6725" r="0.1750" /> 
</g>
<g style="fill:#e8e8e0; fill-opacity:1.0000; stroke:none;">
<circle cx="116.2375" cy="47.2925" r="0.1750" /> 
</g>
<g style="fill:#e8e8e0; fill-opacity:1.0000; stroke:none;">
<circle cx="121.3175" cy="47.2925" r="0.1750" /> 
</g>
<g style="fill:#e8e8e0; fill-opacity:1.0000; stroke:none;">
<circle cx="121.3175" cy="39.6725" r="0.1750" /> 
</g>
<g style="fill:#e8e8e0; fill-opacity:1.0000; stroke:none;">
<circle cx="121.3175" cy="37.1325" r="0.1750" /> 
</g> 
</svg>
